<?xml version="1.0" encoding="UTF-8" standalone="no"?>
<!-- Created with Inkscape (http://www.inkscape.org/) -->

<svg
   version="1.1"
   id="svg1"
   width="512"
   height="512"
   viewBox="0 0 512 512"
   xml:space="preserve"
   xmlns="http://www.w3.org/2000/svg"
   xmlns:svg="http://www.w3.org/2000/svg"><defs
     id="defs1" /><rect
     style="fill:#000000;stroke-width:3;stroke-linecap:round;stroke-linejoin:round;fill-opacity:1"
     id="rect11"
     width="512"
     height="512"
     x="0"
     y="0" /><path
     id="rect12"
     style="fill:#ffffff;fill-opacity:1;stroke-width:3;stroke-linecap:round;stroke-linejoin:round"
     d="M 0 344 L 0 348 L 0 380 L 132 380 L 132 348 L 96 348 L 96 344 L 0 344 z M 15 364 L 21 364 L 21 368 L 15 368 L 15 364 z " /><path
     style="fill:#ffffff;fill-opacity:1;stroke-width:3;stroke-linecap:round;stroke-linejoin:round"
     d="M 151,512 V 246 h 159 v 75 h 202 v 191 z"
     id="path13" /><path
     style="fill:#ffffff;fill-opacity:1;stroke-width:3;stroke-linecap:round;stroke-linejoin:round"
     d="M 4,121 V 22 h 101 v 99 z"
     id="path14" /><path
     style="fill:#ffffff;fill-opacity:1;stroke-width:3;stroke-linecap:round;stroke-linejoin:round"
     d="M 222,58 V 5 h 59 v 53 z"
     id="path15" /><path
     id="path16"
     style="fill:#ffffff;fill-opacity:1;stroke-width:3;stroke-linecap:round;stroke-linejoin:round"
     d="M 305 0 L 305 63 L 223 63 L 223 132 L 305 132 L 305 137 L 145 137 L 145 242 L 453 242 L 453 284 L 512 284 L 512 0 L 305 0 z M 252 154 L 333 154 L 333 215 L 334 215 L 334 231 L 252 231 L 252 154 z M 358 156 L 388 156 L 388 185 L 358 185 L 358 156 z " /></svg>
