<?xml version="1.0" encoding="UTF-8" standalone="no"?>
<!-- Created with Inkscape (http://www.inkscape.org/) -->

<svg
   version="1.1"
   id="svg1"
   width="2048"
   height="2048"
   viewBox="0 0 2048 2048"
   xml:space="preserve"
   xmlns="http://www.w3.org/2000/svg"
   xmlns:svg="http://www.w3.org/2000/svg"><defs
     id="defs1" /><rect
     style="opacity:1;fill:#ffffff;fill-opacity:1;stroke:none;stroke-width:3;stroke-linecap:round;stroke-linejoin:bevel;stroke-dasharray:none;stroke-opacity:1"
     id="rect23"
     width="2048"
     height="2048"
     x="0"
     y="0" /><path
     style="opacity:1;fill:#000000;fill-opacity:1;stroke:none;stroke-width:3;stroke-linecap:round;stroke-linejoin:bevel;stroke-dasharray:none;stroke-opacity:1"
     d="m 636,188 4,4 h 15 l 5,-5 V 20 l -4,-4 h -16 l -4,4 z"
     id="path23" /><path
     style="opacity:1;fill:#000000;fill-opacity:1;stroke:none;stroke-width:3;stroke-linecap:round;stroke-linejoin:bevel;stroke-dasharray:none;stroke-opacity:1"
     d="m 1700,1008 4,4 h 16 l 4,-4 V 824 l -4,-4 h -16 l -4,4 z"
     id="path24" /><path
     style="opacity:1;fill:#000000;fill-opacity:1;stroke:none;stroke-width:3;stroke-linecap:round;stroke-linejoin:bevel;stroke-dasharray:none;stroke-opacity:1"
     d="m 1770,963 -1,-1 v -20 l 1,-1 h 31 l 1,1 v 20 l -1,1 z"
     id="path25" /><path
     style="opacity:1;fill:#000000;fill-opacity:1;stroke:none;stroke-width:3;stroke-linecap:round;stroke-linejoin:bevel;stroke-dasharray:none;stroke-opacity:1"
     d="m 1211,1408 v -62 h 73 v 62 z"
     id="path26" /><path
     style="opacity:1;fill:#000000;fill-opacity:1;stroke:none;stroke-width:3;stroke-linecap:round;stroke-linejoin:bevel;stroke-dasharray:none;stroke-opacity:1"
     d="m 566,913 v -11 l 1,-1 h 18 l 1,1 v 11 l -1,1 h -18 z"
     id="path27" /><path
     style="opacity:1;fill:#000000;fill-opacity:1;stroke:none;stroke-width:3;stroke-linecap:round;stroke-linejoin:bevel;stroke-dasharray:none;stroke-opacity:1"
     d="m 91,1006 -1,-1 v -11 l 1,-1 h 18 l 1,1 v 11 l -1,1 z"
     id="path28" /><path
     style="opacity:1;fill:#000000;fill-opacity:1;stroke:none;stroke-width:3;stroke-linecap:round;stroke-linejoin:bevel;stroke-dasharray:none;stroke-opacity:1"
     d="m 1286,1713 1,1 h 11 l 1,-1 v -18 l -1,-1 h -11 l -1,1 z"
     id="path29" /><path
     style="opacity:1;fill:#000000;fill-opacity:1;stroke:none;stroke-width:3;stroke-linecap:round;stroke-linejoin:bevel;stroke-dasharray:none;stroke-opacity:1"
     d="m 1882,1733 v -11 l 1,-1 h 18 l 1,1 v 11 l -1,1 h -18 z"
     id="path30" /><path
     style="opacity:1;fill:#000000;fill-opacity:1;stroke:none;stroke-width:3;stroke-linecap:round;stroke-linejoin:bevel;stroke-dasharray:none;stroke-opacity:1"
     d="m 1611,1939 1,-1 h 24 l 1,1 v 34 l -1,1 h -24 l -1,-1 z"
     id="path31" /><path
     style="opacity:1;fill:#000000;fill-opacity:1;stroke:none;stroke-width:3;stroke-linecap:round;stroke-linejoin:bevel;stroke-dasharray:none;stroke-opacity:1"
     d="m 1682,334 -1,-1 v -18 l 1,-1 h 11 l 1,1 v 18 l -1,1 z"
     id="path32" /><path
     style="opacity:1;fill:#000000;fill-opacity:1;stroke:none;stroke-width:3;stroke-linecap:round;stroke-linejoin:bevel;stroke-dasharray:none;stroke-opacity:1"
     d="m 1760,1976 v -8 h 265 v 8 z"
     id="path33" /><path
     style="opacity:1;fill:#000000;fill-opacity:1;stroke:none;stroke-width:3;stroke-linecap:round;stroke-linejoin:bevel;stroke-dasharray:none;stroke-opacity:1"
     d="m 1760,1980 h 265 v 8 h -265 z"
     id="path34" /></svg>
