<?xml version="1.0" encoding="UTF-8" standalone="no"?>
<!-- Created with Inkscape (http://www.inkscape.org/) -->

<svg
   version="1.1"
   id="svg1"
   width="1024"
   height="1024"
   viewBox="0 0 1024 1024"
   xml:space="preserve"
   xmlns="http://www.w3.org/2000/svg"
   xmlns:svg="http://www.w3.org/2000/svg"><defs
     id="defs1" /><rect
     style="display:inline;fill:#000000;fill-opacity:1;stroke-width:2.25;stroke-linecap:round;stroke-linejoin:bevel"
     id="rect17"
     width="1024"
     height="1024"
     x="0"
     y="0" /><g
     id="g1"
     style="fill:#ffffff;fill-opacity:1"><path
       id="path557"
       d="m 340,813 -1,-1 h -50 l -1,1 v 3 l 1,1 h 50 l 1,-1 z m -1,0 v 3 h -50 v -3 z" /><path
       id="path558"
       d="m 340,823 -1,-1 h -48 l -1,1 v 3 l 1,1 h 48 l 1,-1 z m -1,0 v 3 h -48 v -3 z" /><path
       id="path559"
       d="m 340,833 -1,-1 h -46 l -1,1 v 3 l 1,1 h 46 l 1,-1 z m -1,0 v 3 h -46 v -3 z" /><path
       id="path560"
       d="m 340,843 -1,-1 h -44 l -1,1 v 3 l 1,1 h 44 l 1,-1 z m -1,0 v 3 h -44 v -3 z" /><path
       id="path561"
       d="m 340,853 -1,-1 h -42 l -1,1 v 3 l 1,1 h 42 l 1,-1 z m -1,0 v 3 h -42 v -3 z" /><path
       id="path562"
       d="m 340,863 -1,-1 h -40 l -1,1 v 3 l 1,1 h 40 l 1,-1 z m -1,0 v 3 h -40 v -3 z" /><path
       id="path563"
       d="m 340,886 -1,-1 h -37 l -1,1 v 3 l 1,1 h 37 l 1,-1 z m -1,0 v 3 h -37 v -3 z" /><path
       id="path564"
       d="m 340,896 -1,-1 h -35 l -1,1 v 3 l 1,1 h 35 l 1,-1 z m -1,0 v 3 h -35 v -3 z" /><path
       id="path565"
       d="m 340,906 -1,-1 h -33 l -1,1 v 3 l 1,1 h 33 l 1,-1 z m -1,0 v 3 h -33 v -3 z" /><path
       id="path566"
       d="m 340,916 -1,-1 h -31 l -1,1 v 3 l 1,1 h 31 l 1,-1 z m -1,0 v 3 h -31 v -3 z" /><path
       id="path567"
       d="m 340,926 -1,-1 h -29 l -1,1 v 3 l 1,1 h 29 l 1,-1 z m -1,0 v 3 h -29 v -3 z" /><path
       id="path568"
       d="m 340,936 -1,-1 h -27 l -1,1 v 3 l 1,1 h 27 l 1,-1 z m -1,0 v 3 h -27 v -3 z" /><path
       id="path569"
       d="m 340,946 -1,-1 h -26 l -1,1 v 3 l 1,1 h 26 l 1,-1 z m -1,0 v 3 h -26 v -3 z" /><path
       id="path570"
       d="m 340,956 -1,-1 h -24 l -1,1 v 3 l 1,1 h 24 l 1,-1 z m -1,0 v 3 h -24 v -3 z" /><path
       id="path571"
       d="m 340,966 -1,-1 h -22 l -1,1 v 3 l 1,1 h 22 l 1,-1 z m -1,0 v 3 h -22 v -3 z" /><path
       id="path572"
       d="m 340,976 -1,-1 h -19 l -1,1 v 3 l 1,1 h 19 l 1,-1 z m -1,0 v 3 h -19 v -3 z" /><path
       id="path573"
       d="m 340,986 -1,-1 h -14 l -1,1 v 3 l 1,1 h 14 l 1,-1 z m -1,0 v 3 h -14 v -3 z" /><path
       id="path574"
       d="m 295,792 1,-1 v -28 l -1,-1 h -2 l -1,1 v 28 l 1,1 z m 0,-1 h -2 v -28 h 2 z" /><path
       id="path575"
       d="m 302,792 1,-1 v -23 l -1,-1 h -2 l -1,1 v 23 l 1,1 z m 0,-1 h -2 v -23 h 2 z" /><path
       id="path576"
       d="m 309,792 1,-1 v -18 l -1,-1 h -2 l -1,1 v 18 l 1,1 z m 0,-1 h -2 v -18 h 2 z" /><path
       id="path577"
       d="m 316,792 1,-1 v -14 l -1,-1 h -2 l -1,1 v 14 l 1,1 z m 0,-1 h -2 v -14 h 2 z" /><path
       id="path578"
       d="m 323,792 1,-1 v -11 l -1,-1 h -2 l -1,1 v 11 l 1,1 z m 0,-1 h -2 v -11 h 2 z" /><path
       id="path579"
       d="m 330,792 1,-1 v -9 l -1,-1 h -2 l -1,1 v 9 l 1,1 z m 0,-1 h -2 v -9 h 2 z" /><path
       id="path580"
       d="m 338,792 1,-1 v -7 l -1,-1 h -2 l -1,1 v 7 l 1,1 z m 0,-1 h -2 v -7 h 2 z" /><path
       id="path581"
       d="m 338,808 1,-1 v -11 l -1,-1 h -2 l -1,1 v 11 l 1,1 z m 0,-1 h -2 v -11 h 2 z" /><path
       id="path582"
       d="m 331,808 1,-1 v -11 l -1,-1 h -2 l -1,1 v 11 l 1,1 z m 0,-1 h -2 v -11 h 2 z" /><path
       id="path583"
       d="m 324,808 1,-1 v -11 l -1,-1 h -2 l -1,1 v 11 l 1,1 z m 0,-1 h -2 v -11 h 2 z" /><path
       id="path584"
       d="m 317,808 1,-1 v -11 l -1,-1 h -2 l -1,1 v 11 l 1,1 z m 0,-1 h -2 v -11 h 2 z" /><path
       id="path585"
       d="m 310,808 1,-1 v -11 l -1,-1 h -2 l -1,1 v 11 l 1,1 z m 0,-1 h -2 v -11 h 2 z" /><path
       id="path586"
       d="m 303,808 1,-1 v -11 l -1,-1 h -2 l -1,1 v 11 l 1,1 z m 0,-1 h -2 v -11 h 2 z" /><path
       id="path587"
       d="m 296,808 1,-1 v -11 l -1,-1 h -2 l -1,1 v 11 l 1,1 z m 0,-1 h -2 v -11 h 2 z" /><path
       id="path588"
       d="m 289,808 1,-1 v -11 l -1,-1 h -2 l -1,1 v 11 l 1,1 z m 0,-1 h -2 v -11 h 2 z" /><path
       id="path589"
       d="m 345,808 1,-1 v -11 l -1,-1 h -2 l -1,1 v 11 l 1,1 z m 0,-1 h -2 v -11 h 2 z" /><path
       id="path590"
       d="m 348,813 1,-1 h 50 l 1,1 v 3 l -1,1 h -50 l -1,-1 z m 1,0 v 3 h 50 v -3 z" /><path
       id="path591"
       d="m 348,823 1,-1 h 48 l 1,1 v 3 l -1,1 h -48 l -1,-1 z m 1,0 v 3 h 48 v -3 z" /><path
       id="path592"
       d="m 348,833 1,-1 h 46 l 1,1 v 3 l -1,1 h -46 l -1,-1 z m 1,0 v 3 h 46 v -3 z" /><path
       id="path593"
       d="m 348,843 1,-1 h 44 l 1,1 v 3 l -1,1 h -44 l -1,-1 z m 1,0 v 3 h 44 v -3 z" /><path
       id="path594"
       d="m 348,853 1,-1 h 42 l 1,1 v 3 l -1,1 h -42 l -1,-1 z m 1,0 v 3 h 42 v -3 z" /><path
       id="path595"
       d="m 348,863 1,-1 h 40 l 1,1 v 3 l -1,1 h -40 l -1,-1 z m 1,0 v 3 h 40 v -3 z" /><path
       id="path596"
       d="m 348,886 1,-1 h 37 l 1,1 v 3 l -1,1 h -37 l -1,-1 z m 1,0 v 3 h 37 v -3 z" /><path
       id="path597"
       d="m 348,896 1,-1 h 35 l 1,1 v 3 l -1,1 h -35 l -1,-1 z m 1,0 v 3 h 35 v -3 z" /><path
       id="path598"
       d="m 348,906 1,-1 h 33 l 1,1 v 3 l -1,1 h -33 l -1,-1 z m 1,0 v 3 h 33 v -3 z" /><path
       id="path599"
       d="m 348,916 1,-1 h 31 l 1,1 v 3 l -1,1 h -31 l -1,-1 z m 1,0 v 3 h 31 v -3 z" /><path
       id="path600"
       d="m 348,926 1,-1 h 29 l 1,1 v 3 l -1,1 h -29 l -1,-1 z m 1,0 v 3 h 29 v -3 z" /><path
       id="path601"
       d="m 348,936 1,-1 h 27 l 1,1 v 3 l -1,1 h -27 l -1,-1 z m 1,0 v 3 h 27 v -3 z" /><path
       id="path602"
       d="m 348,946 1,-1 h 26 l 1,1 v 3 l -1,1 h -26 l -1,-1 z m 1,0 v 3 h 26 v -3 z" /><path
       id="path603"
       d="m 348,956 1,-1 h 24 l 1,1 v 3 l -1,1 h -24 l -1,-1 z m 1,0 v 3 h 24 v -3 z" /><path
       id="path604"
       d="m 348,966 1,-1 h 22 l 1,1 v 3 l -1,1 h -22 l -1,-1 z m 1,0 v 3 h 22 v -3 z" /><path
       id="path605"
       d="m 348,976 1,-1 h 19 l 1,1 v 3 l -1,1 h -19 l -1,-1 z m 1,0 v 3 h 19 v -3 z" /><path
       id="path606"
       d="m 348,986 1,-1 h 14 l 1,1 v 3 l -1,1 h -14 l -1,-1 z m 1,0 v 3 h 14 v -3 z" /><path
       id="path607"
       d="m 392,792 -1,-1 v -28 l 1,-1 h 2 l 1,1 v 28 l -1,1 z m 0,-1 h 2 v -28 h -2 z" /><path
       id="path608"
       d="m 385,792 -1,-1 v -23 l 1,-1 h 2 l 1,1 v 23 l -1,1 z m 0,-1 h 2 v -23 h -2 z" /><path
       id="path609"
       d="m 378,792 -1,-1 v -18 l 1,-1 h 2 l 1,1 v 18 l -1,1 z m 0,-1 h 2 v -18 h -2 z" /><path
       id="path610"
       d="m 371,792 -1,-1 v -14 l 1,-1 h 2 l 1,1 v 14 l -1,1 z m 0,-1 h 2 v -14 h -2 z" /><path
       id="path611"
       d="m 364,792 -1,-1 v -11 l 1,-1 h 2 l 1,1 v 11 l -1,1 z m 0,-1 h 2 v -11 h -2 z" /><path
       id="path612"
       d="m 357,792 -1,-1 v -9 l 1,-1 h 2 l 1,1 v 9 l -1,1 z m 0,-1 h 2 v -9 h -2 z" /><path
       id="path613"
       d="m 350,792 -1,-1 v -7 l 1,-1 h 2 l 1,1 v 7 l -1,1 z m 0,-1 h 2 v -7 h -2 z" /><path
       id="path614"
       d="m 350,808 -1,-1 v -11 l 1,-1 h 2 l 1,1 v 11 l -1,1 z m 0,-1 h 2 v -11 h -2 z" /><path
       id="path615"
       d="m 357,808 -1,-1 v -11 l 1,-1 h 2 l 1,1 v 11 l -1,1 z m 0,-1 h 2 v -11 h -2 z" /><path
       id="path616"
       d="m 364,808 -1,-1 v -11 l 1,-1 h 2 l 1,1 v 11 l -1,1 z m 0,-1 h 2 v -11 h -2 z" /><path
       id="path617"
       d="m 371,808 -1,-1 v -11 l 1,-1 h 2 l 1,1 v 11 l -1,1 z m 0,-1 h 2 v -11 h -2 z" /><path
       id="path618"
       d="m 378,808 -1,-1 v -11 l 1,-1 h 2 l 1,1 v 11 l -1,1 z m 0,-1 h 2 v -11 h -2 z" /><path
       id="path619"
       d="m 385,808 -1,-1 v -11 l 1,-1 h 2 l 1,1 v 11 l -1,1 z m 0,-1 h 2 v -11 h -2 z" /><path
       id="path620"
       d="m 392,808 -1,-1 v -11 l 1,-1 h 2 l 1,1 v 11 l -1,1 z m 0,-1 h 2 v -11 h -2 z" /><path
       id="path621"
       d="m 399,808 -1,-1 v -11 l 1,-1 h 2 l 1,1 v 11 l -1,1 z m 0,-1 h 2 v -11 h -2 z" /><path
       id="path445"
       d="m 17,623 1,1 v 3 l -1,1 H 0 v -1 h 17 v -3 H 0 v -1 z" /><path
       id="path446"
       d="m 132,655 -1,-1 H 89 l -1,1 v 3 l 1,1 h 42 l 1,-1 z m -1,0 v 3 H 89 v -3 z" /><path
       id="path447"
       d="m 132,666 -1,-1 H 89 l -1,1 v 3 l 1,1 h 42 l 1,-1 z m -1,0 v 3 H 89 v -3 z" /><path
       id="path448"
       d="m 187,655 -1,-1 h -42 l -1,1 v 3 l 1,1 h 42 l 1,-1 z m -1,0 v 3 h -42 v -3 z" /><path
       id="path449"
       d="m 187,666 -1,-1 h -42 l -1,1 v 3 l 1,1 h 42 l 1,-1 z m -1,0 v 3 h -42 v -3 z" /><path
       id="path450"
       d="m 244,655 -1,-1 h -42 l -1,1 v 3 l 1,1 h 42 l 1,-1 z m -1,0 v 3 h -42 v -3 z" /><path
       id="path451"
       d="m 244,666 -1,-1 h -42 l -1,1 v 3 l 1,1 h 42 l 1,-1 z m -1,0 v 3 h -42 v -3 z" /><path
       id="path452"
       d="m 244,677 -1,-1 h -42 l -1,1 v 3 l 1,1 h 42 l 1,-1 z m -1,0 v 3 h -42 v -3 z" /><path
       id="path453"
       d="m 244,689 -1,-1 h -42 l -1,1 v 3 l 1,1 h 42 l 1,-1 z m -1,0 v 3 h -42 v -3 z" /><path
       id="path454"
       d="m 244,700 -1,-1 h -42 l -1,1 v 3 l 1,1 h 42 l 1,-1 z m -1,0 v 3 h -42 v -3 z" /><path
       id="path455"
       d="m 244,711 -1,-1 h -42 l -1,1 v 3 l 1,1 h 42 l 1,-1 z m -1,0 v 3 h -42 v -3 z" /><path
       id="path456"
       d="m 244,723 -1,-1 h -42 l -1,1 v 4 l 1,1 h 42 l 1,-1 z m -1,0 v 4 h -42 v -4 z" /><path
       id="path457"
       d="m 244,735 -1,-1 h -42 l -1,1 v 4 l 1,1 h 42 l 1,-1 z m -1,0 v 4 h -42 v -4 z" /><path
       id="path458"
       d="m 244,747 -1,-1 h -42 l -1,1 v 4 l 1,1 h 42 l 1,-1 z m -1,0 v 4 h -42 v -4 z" /><path
       id="path459"
       d="m 244,759 -1,-1 h -42 l -1,1 v 4 l 1,1 h 42 l 1,-1 z m -1,0 v 4 h -42 v -4 z" /><path
       id="path460"
       d="m 244,771 -1,-1 h -42 l -1,1 v 4 l 1,1 h 42 l 1,-1 z m -1,0 v 4 h -42 v -4 z" /><path
       id="path461"
       d="m 244,783 -1,-1 h -42 l -1,1 v 4 l 1,1 h 42 l 1,-1 z m -1,0 v 4 h -42 v -4 z" /><path
       id="path462"
       d="m 244,795 -1,-1 h -42 l -1,1 v 4 l 1,1 h 42 l 1,-1 z m -1,0 v 4 h -42 v -4 z" /><path
       id="path463"
       d="m 187,741 -1,-1 h -42 l -1,1 v 4 l 1,1 h 42 l 1,-1 z m -1,0 v 4 h -42 v -4 z" /><path
       id="path464"
       d="m 187,753 -1,-1 h -42 l -1,1 v 4 l 1,1 h 42 l 1,-1 z m -1,0 v 4 h -42 v -4 z" /><path
       id="path465"
       d="m 187,765 -1,-1 h -42 l -1,1 v 4 l 1,1 h 42 l 1,-1 z m -1,0 v 4 h -42 v -4 z" /><path
       id="path466"
       d="m 187,777 -1,-1 h -42 l -1,1 v 4 l 1,1 h 42 l 1,-1 z m -1,0 v 4 h -42 v -4 z" /><path
       id="path467"
       d="m 187,789 -1,-1 h -42 l -1,1 v 4 l 1,1 h 42 l 1,-1 z m -1,0 v 4 h -42 v -4 z" /><path
       id="path468"
       d="m 132,735 -1,-1 H 89 l -1,1 v 4 l 1,1 h 42 l 1,-1 z m -1,0 v 4 H 89 v -4 z" /><path
       id="path469"
       d="m 132,747 -1,-1 h -24 l -1,1 v 4 l 1,1 h 24 l 1,-1 z m -1,0 v 4 h -24 v -4 z" /><path
       id="path470"
       d="m 132,759 -1,-1 H 89 l -1,1 v 4 l 1,1 h 42 l 1,-1 z m -1,0 v 4 H 89 v -4 z" /><path
       id="path471"
       d="m 132,771 -1,-1 H 89 l -1,1 v 4 l 1,1 h 42 l 1,-1 z m -1,0 v 4 H 89 v -4 z" /><path
       id="path472"
       d="m 132,783 -1,-1 H 89 l -1,1 v 4 l 1,1 h 42 l 1,-1 z m -1,0 v 4 H 89 v -4 z" /><path
       id="path473"
       d="m 132,795 -1,-1 H 89 l -1,1 v 4 l 1,1 h 42 l 1,-1 z m -1,0 v 4 H 89 v -4 z" /><path
       id="path474"
       d="m 17,632 1,1 v 3 l -1,1 H 0 v -1 h 17 v -3 H 0 v -1 z" /><path
       id="path475"
       d="m 17,642 1,1 v 3 l -1,1 H 0 v -1 h 17 v -3 H 0 v -1 z" /><path
       id="path476"
       d="m 17,652 1,1 v 3 l -1,1 H 0 v -1 h 17 v -3 H 0 v -1 z" /><path
       id="path477"
       d="m 17,662 1,1 v 3 l -1,1 H 0 v -1 h 17 v -3 H 0 v -1 z" /><path
       id="path478"
       d="m 17,672 1,1 v 3 l -1,1 H 0 v -1 h 17 v -3 H 0 v -1 z" /><path
       id="path479"
       d="m 17,682 1,1 v 3 l -1,1 H 0 v -1 h 17 v -3 H 0 v -1 z" /><path
       id="path480"
       d="m 17,692 1,1 v 3 l -1,1 H 0 v -1 h 17 v -3 H 0 v -1 z" /><path
       id="path481"
       d="m 17,702 1,1 v 3 l -1,1 H 0 v -1 h 17 v -3 H 0 v -1 z" /><path
       id="path482"
       d="m 17,712 1,1 v 3 l -1,1 H 0 v -1 h 17 v -3 H 0 v -1 z" /><path
       id="path483"
       d="m 17,722 1,1 v 3 l -1,1 H 0 v -1 h 17 v -3 H 0 v -1 z" /><path
       id="path484"
       d="m 17,732 1,1 v 3 l -1,1 H 0 v -1 h 17 v -3 H 0 v -1 z" /><path
       id="path485"
       d="m 17,742 1,1 v 3 l -1,1 H 0 v -1 h 17 v -3 H 0 v -1 z" /><path
       id="path486"
       d="m 17,752 1,1 v 3 l -1,1 H 0 v -1 h 17 v -3 H 0 v -1 z" /><path
       id="path487"
       d="m 17,762 1,1 v 3 l -1,1 H 0 v -1 h 17 v -3 H 0 v -1 z" /><path
       id="path488"
       d="m 17,772 1,1 v 3 l -1,1 H 0 v -1 h 17 v -3 H 0 v -1 z" /><path
       id="path489"
       d="m 17,782 1,1 v 3 l -1,1 H 0 v -1 h 17 v -3 H 0 v -1 z" /><path
       id="path490"
       d="m 17,792 1,1 v 3 l -1,1 H 0 v -1 h 17 v -3 H 0 v -1 z" /><path
       id="path491"
       d="m 17,802 1,1 v 3 l -1,1 H 0 v -1 h 17 v -3 H 0 v -1 z" /><path
       id="path492"
       d="m 17,812 1,1 v 3 l -1,1 H 0 v -1 h 17 v -3 H 0 v -1 z" /><path
       id="path493"
       d="m 17,822 1,1 v 3 l -1,1 H 0 v -1 h 17 v -3 H 0 v -1 z" /><path
       id="path494"
       d="m 17,832 1,1 v 3 l -1,1 H 0 v -1 h 17 v -3 H 0 v -1 z" /><path
       id="path495"
       d="m 17,842 1,1 v 3 l -1,1 H 0 v -1 h 17 v -3 H 0 v -1 z" /><path
       id="path496"
       d="m 17,852 1,1 v 3 l -1,1 H 0 v -1 h 17 v -3 H 0 v -1 z" /><path
       id="path497"
       d="m 17,862 1,1 v 3 l -1,1 H 0 v -1 h 17 v -3 H 0 v -1 z" /><path
       id="path498"
       d="m 17,872 1,1 v 3 l -1,1 H 0 v -1 h 17 v -3 H 0 v -1 z" /><path
       id="path499"
       d="m 39,884 -1,-1 H 7 l -1,1 v 3 l 1,1 h 31 l 1,-1 z m -1,0 v 3 H 7 v -3 z" /><path
       id="path500"
       d="m 39,894 -1,-1 H 7 l -1,1 v 3 l 1,1 h 31 l 1,-1 z m -1,0 v 3 H 7 v -3 z" /><path
       id="path501"
       d="m 39,904 -1,-1 H 7 l -1,1 v 3 l 1,1 h 31 l 1,-1 z m -1,0 v 3 H 7 v -3 z" /><path
       id="path502"
       d="m 39,914 -1,-1 H 7 l -1,1 v 3 l 1,1 h 31 l 1,-1 z m -1,0 v 3 H 7 v -3 z" /><path
       id="path503"
       d="m 39,924 -1,-1 H 7 l -1,1 v 3 l 1,1 h 31 l 1,-1 z m -1,0 v 3 H 7 v -3 z" /><path
       id="path504"
       d="m 39,934 -1,-1 H 7 l -1,1 v 3 l 1,1 h 31 l 1,-1 z m -1,0 v 3 H 7 v -3 z" /><path
       id="path505"
       d="m 39,944 -1,-1 H 7 l -1,1 v 3 l 1,1 h 31 l 1,-1 z m -1,0 v 3 H 7 v -3 z" /><path
       id="path506"
       d="m 39,954 -1,-1 H 7 l -1,1 v 3 l 1,1 h 31 l 1,-1 z m -1,0 v 3 H 7 v -3 z" /><path
       id="path507"
       d="m 39,964 -1,-1 H 7 l -1,1 v 3 l 1,1 h 31 l 1,-1 z m -1,0 v 3 H 7 v -3 z" /><path
       id="path508"
       d="m 39,974 -1,-1 H 7 l -1,1 v 3 l 1,1 h 31 l 1,-1 z m -1,0 v 3 H 7 v -3 z" /><path
       id="path509"
       d="m 48,984 -1,-1 H 7 l -1,1 v 3 l 1,1 h 40 l 1,-1 z m -1,0 v 3 H 7 v -3 z" /><path
       id="path510"
       d="m 56,994 -1,-1 H 7 l -1,1 v 3 l 1,1 h 48 l 1,-1 z m -1,0 v 3 H 7 v -3 z" /><path
       id="path511"
       d="m 56,1004 -1,-1 H 7 l -1,1 v 3 l 1,1 h 48 l 1,-1 z m -1,0 v 3 H 7 v -3 z" /><path
       id="path512"
       d="m 104,994 -1,-1 H 64 l -1,1 v 3 l 1,1 h 39 l 1,-1 z m -1,0 v 3 H 64 v -3 z" /><path
       id="path513"
       d="m 104,1004 -1,-1 H 64 l -1,1 v 3 l 1,1 h 39 l 1,-1 z m -1,0 v 3 H 64 v -3 z" /><path
       id="path514"
       d="m 160,994 -1,-1 h -48 l -1,1 v 3 l 1,1 h 48 l 1,-1 z m -1,0 v 3 h -48 v -3 z" /><path
       id="path515"
       d="m 160,1004 -1,-1 h -48 l -1,1 v 3 l 1,1 h 48 l 1,-1 z m -1,0 v 3 h -48 v -3 z" /><path
       id="path516"
       d="m 160,974 -1,-1 h -31 l -1,1 v 3 l 1,1 h 31 l 1,-1 z m -1,0 v 3 h -31 v -3 z" /><path
       id="path517"
       d="m 160,984 -1,-1 h -39 l -1,1 v 3 l 1,1 h 39 l 1,-1 z m -1,0 v 3 h -39 v -3 z" /><path
       id="path518"
       d="m 160,964 -1,-1 h -30 l -1,1 v 3 l 1,1 h 30 l 1,-1 z m -1,0 v 3 h -30 v -3 z" /><path
       id="path519"
       d="m 160,954 -1,-1 h -30 l -1,1 v 3 l 1,1 h 30 l 1,-1 z m -1,0 v 3 h -30 v -3 z" /><path
       id="path520"
       d="m 160,944 -1,-1 h -30 l -1,1 v 3 l 1,1 h 30 l 1,-1 z m -1,0 v 3 h -30 v -3 z" /><path
       id="path521"
       d="m 161,934 -1,-1 h -32 l -1,1 v 3 l 1,1 h 32 l 1,-1 z m -1,0 v 3 h -32 v -3 z" /><path
       id="path522"
       d="m 161,924 -1,-1 h -32 l -1,1 v 3 l 1,1 h 32 l 1,-1 z m -1,0 v 3 h -32 v -3 z" /><path
       id="path523"
       d="m 161,914 -1,-1 h -32 l -1,1 v 3 l 1,1 h 32 l 1,-1 z m -1,0 v 3 h -32 v -3 z" /><path
       id="path524"
       d="m 161,904 -1,-1 h -32 l -1,1 v 3 l 1,1 h 32 l 1,-1 z m -1,0 v 3 h -32 v -3 z" /><path
       id="path525"
       d="m 161,894 -1,-1 h -32 l -1,1 v 3 l 1,1 h 32 l 1,-1 z m -1,0 v 3 h -32 v -3 z" /><path
       id="path526"
       d="m 161,884 -1,-1 h -32 l -1,1 v 3 l 1,1 h 32 l 1,-1 z m -1,0 v 3 h -32 v -3 z" /><path
       id="path527"
       d="m 105,955 -1,-1 H 86 l -1,1 v 3 l 1,1 h 18 l 1,-1 z m -1,0 v 3 H 86 v -3 z" /><path
       id="path528"
       d="m 105,945 -1,-1 H 86 l -1,1 v 3 l 1,1 h 18 l 1,-1 z m -1,0 v 3 H 86 v -3 z" /><path
       id="path529"
       d="m 105,935 -1,-1 H 86 l -1,1 v 3 l 1,1 h 18 l 1,-1 z m -1,0 v 3 H 86 v -3 z" /><path
       id="path530"
       d="m 105,925 -1,-1 H 86 l -1,1 v 3 l 1,1 h 18 l 1,-1 z m -1,0 v 3 H 86 v -3 z" /><path
       id="path531"
       d="m 105,915 -1,-1 H 86 l -1,1 v 3 l 1,1 h 18 l 1,-1 z m -1,0 v 3 H 86 v -3 z" /><path
       id="path532"
       d="m 105,905 -1,-1 H 86 l -1,1 v 3 l 1,1 h 18 l 1,-1 z m -1,0 v 3 H 86 v -3 z" /><path
       id="path533"
       d="m 105,895 -1,-1 H 86 l -1,1 v 3 l 1,1 h 18 l 1,-1 z m -1,0 v 3 H 86 v -3 z" /><path
       id="path534"
       d="m 105,885 -1,-1 H 86 l -1,1 v 3 l 1,1 h 18 l 1,-1 z m -1,0 v 3 H 86 v -3 z" /><path
       id="path535"
       d="m 105,875 -1,-1 H 86 l -1,1 v 3 l 1,1 h 18 l 1,-1 z m -1,0 v 3 H 86 v -3 z" /><path
       id="path536"
       d="m 105,865 -1,-1 H 86 l -1,1 v 3 l 1,1 h 18 l 1,-1 z m -1,0 v 3 H 86 v -3 z" /><path
       id="path537"
       d="m 105,855 -1,-1 H 86 l -1,1 v 3 l 1,1 h 18 l 1,-1 z m -1,0 v 3 H 86 v -3 z" /><path
       id="path538"
       d="m 105,845 -1,-1 H 86 l -1,1 v 3 l 1,1 h 18 l 1,-1 z m -1,0 v 3 H 86 v -3 z" /><path
       id="path539"
       d="m 105,835 -1,-1 H 86 l -1,1 v 3 l 1,1 h 18 l 1,-1 z m -1,0 v 3 H 86 v -3 z" /><path
       id="path540"
       d="m 105,825 -1,-1 H 86 l -1,1 v 3 l 1,1 h 18 l 1,-1 z m -1,0 v 3 H 86 v -3 z" /><path
       id="path541"
       d="m 105,815 -1,-1 H 86 l -1,1 v 3 l 1,1 h 18 l 1,-1 z m -1,0 v 3 H 86 v -3 z" /><path
       id="path542"
       d="m 246,955 -1,-1 h -18 l -1,1 v 3 l 1,1 h 18 l 1,-1 z m -1,0 v 3 h -18 v -3 z" /><path
       id="path543"
       d="m 246,945 -1,-1 h -18 l -1,1 v 3 l 1,1 h 18 l 1,-1 z m -1,0 v 3 h -18 v -3 z" /><path
       id="path544"
       d="m 246,935 -1,-1 h -18 l -1,1 v 3 l 1,1 h 18 l 1,-1 z m -1,0 v 3 h -18 v -3 z" /><path
       id="path545"
       d="m 246,925 -1,-1 h -18 l -1,1 v 3 l 1,1 h 18 l 1,-1 z m -1,0 v 3 h -18 v -3 z" /><path
       id="path546"
       d="m 246,915 -1,-1 h -18 l -1,1 v 3 l 1,1 h 18 l 1,-1 z m -1,0 v 3 h -18 v -3 z" /><path
       id="path547"
       d="m 246,905 -1,-1 h -18 l -1,1 v 3 l 1,1 h 18 l 1,-1 z m -1,0 v 3 h -18 v -3 z" /><path
       id="path548"
       d="m 246,895 -1,-1 h -18 l -1,1 v 3 l 1,1 h 18 l 1,-1 z m -1,0 v 3 h -18 v -3 z" /><path
       id="path549"
       d="m 246,885 -1,-1 h -18 l -1,1 v 3 l 1,1 h 18 l 1,-1 z m -1,0 v 3 h -18 v -3 z" /><path
       id="path550"
       d="m 246,875 -1,-1 h -18 l -1,1 v 3 l 1,1 h 18 l 1,-1 z m -1,0 v 3 h -18 v -3 z" /><path
       id="path551"
       d="m 246,865 -1,-1 h -18 l -1,1 v 3 l 1,1 h 18 l 1,-1 z m -1,0 v 3 h -18 v -3 z" /><path
       id="path552"
       d="m 246,855 -1,-1 h -18 l -1,1 v 3 l 1,1 h 18 l 1,-1 z m -1,0 v 3 h -18 v -3 z" /><path
       id="path553"
       d="m 246,845 -1,-1 h -18 l -1,1 v 3 l 1,1 h 18 l 1,-1 z m -1,0 v 3 h -18 v -3 z" /><path
       id="path554"
       d="m 246,835 -1,-1 h -18 l -1,1 v 3 l 1,1 h 18 l 1,-1 z m -1,0 v 3 h -18 v -3 z" /><path
       id="path555"
       d="m 246,825 -1,-1 h -18 l -1,1 v 3 l 1,1 h 18 l 1,-1 z m -1,0 v 3 h -18 v -3 z" /><path
       id="path556"
       d="m 246,815 -1,-1 h -18 l -1,1 v 3 l 1,1 h 18 l 1,-1 z m -1,0 v 3 h -18 v -3 z" /><path
       id="path280"
       d="m 446,219 -1,1 v 39 l 1,1 h 4 l 1,-1 v -39 l -1,-1 z m 0,1 h 4 v 39 h -4 z" /><path
       id="path281"
       d="m 456,219 -1,1 v 39 l 1,1 h 4 l 1,-1 v -39 l -1,-1 z m 0,1 h 4 v 39 h -4 z" /><path
       id="path282"
       d="m 466,219 -1,1 v 39 l 1,1 h 4 l 1,-1 v -39 l -1,-1 z m 0,1 h 4 v 39 h -4 z" /><path
       id="path283"
       d="m 476,219 -1,1 v 39 l 1,1 h 4 l 1,-1 v -39 l -1,-1 z m 0,1 h 4 v 39 h -4 z" /><path
       id="path284"
       d="m 446,267 -1,1 v 39 l 1,1 h 4 l 1,-1 v -39 l -1,-1 z m 0,1 h 4 v 39 h -4 z" /><path
       id="path285"
       d="m 456,267 -1,1 v 39 l 1,1 h 4 l 1,-1 v -39 l -1,-1 z m 0,1 h 4 v 39 h -4 z" /><path
       id="path286"
       d="m 466,267 -1,1 v 39 l 1,1 h 4 l 1,-1 v -39 l -1,-1 z m 0,1 h 4 v 39 h -4 z" /><path
       id="path287"
       d="m 476,267 -1,1 v 39 l 1,1 h 4 l 1,-1 v -39 l -1,-1 z m 0,1 h 4 v 39 h -4 z" /><path
       id="path288"
       d="m 446,315 -1,1 v 46 l 1,1 h 4 l 1,-1 v -46 l -1,-1 z m 0,1 h 4 v 46 h -4 z" /><path
       id="path289"
       d="m 456,315 -1,1 v 46 l 1,1 h 4 l 1,-1 v -46 l -1,-1 z m 0,1 h 4 v 46 h -4 z" /><path
       id="path290"
       d="m 466,315 -1,1 v 46 l 1,1 h 4 l 1,-1 v -46 l -1,-1 z m 0,1 h 4 v 46 h -4 z" /><path
       id="path291"
       d="m 476,315 -1,1 v 46 l 1,1 h 4 l 1,-1 v -46 l -1,-1 z m 0,1 h 4 v 46 h -4 z" /><path
       id="path292"
       d="m 446,370 -1,1 v 39 l 1,1 h 4 l 1,-1 v -39 l -1,-1 z m 0,1 h 4 v 39 h -4 z" /><path
       id="path293"
       d="m 456,370 -1,1 v 39 l 1,1 h 4 l 1,-1 v -39 l -1,-1 z m 0,1 h 4 v 39 h -4 z" /><path
       id="path294"
       d="m 466,370 -1,1 v 39 l 1,1 h 4 l 1,-1 v -39 l -1,-1 z m 0,1 h 4 v 39 h -4 z" /><path
       id="path295"
       d="m 476,370 -1,1 v 39 l 1,1 h 4 l 1,-1 v -39 l -1,-1 z m 0,1 h 4 v 39 h -4 z" /><path
       id="path296"
       d="m 446,418 -1,1 v 53 l 1,1 h 4 l 1,-1 v -53 l -1,-1 z m 0,1 h 4 v 53 h -4 z" /><path
       id="path297"
       d="m 456,418 -1,1 v 45 l 1,1 h 4 l 1,-1 v -45 l -1,-1 z m 0,1 h 4 v 45 h -4 z" /><path
       id="path298"
       d="m 466,418 -1,1 v 36 l 1,1 h 4 l 1,-1 v -36 l -1,-1 z m 0,1 h 4 v 36 h -4 z" /><path
       id="path299"
       d="m 476,418 -1,1 v 28 l 1,1 h 4 l 1,-1 v -28 l -1,-1 z m 0,1 h 4 v 28 h -4 z" /><path
       id="path300"
       d="m 446,495 -1,1 v 30 l 1,1 h 4 l 1,-1 v -30 l -1,-1 z m 0,1 h 4 v 30 h -4 z" /><path
       id="path301"
       d="m 456,495 -1,1 v 30 l 1,1 h 4 l 1,-1 v -30 l -1,-1 z m 0,1 h 4 v 30 h -4 z" /><path
       id="path302"
       d="m 466,495 -1,1 v 30 l 1,1 h 4 l 1,-1 v -30 l -1,-1 z m 0,1 h 4 v 30 h -4 z" /><path
       id="path303"
       d="m 476,495 -1,1 v 30 l 1,1 h 4 l 1,-1 v -30 l -1,-1 z m 0,1 h 4 v 30 h -4 z" /><path
       id="path304"
       d="m 446,534 -1,1 v 39 l 1,1 h 4 l 1,-1 v -39 l -1,-1 z m 0,1 h 4 v 39 h -4 z" /><path
       id="path305"
       d="m 456,534 -1,1 v 39 l 1,1 h 4 l 1,-1 v -39 l -1,-1 z m 0,1 h 4 v 39 h -4 z" /><path
       id="path306"
       d="m 466,534 -1,1 v 39 l 1,1 h 4 l 1,-1 v -39 l -1,-1 z m 0,1 h 4 v 39 h -4 z" /><path
       id="path307"
       d="m 476,534 -1,1 v 39 l 1,1 h 4 l 1,-1 v -39 l -1,-1 z m 0,1 h 4 v 39 h -4 z" /><path
       id="path308"
       d="m 446,584 -1,1 v 39 l 1,1 h 4 l 1,-1 v -39 l -1,-1 z m 0,1 h 4 v 39 h -4 z" /><path
       id="path309"
       d="m 456,584 -1,1 v 39 l 1,1 h 4 l 1,-1 v -39 l -1,-1 z m 0,1 h 4 v 39 h -4 z" /><path
       id="path310"
       d="m 466,584 -1,1 v 39 l 1,1 h 4 l 1,-1 v -39 l -1,-1 z m 0,1 h 4 v 39 h -4 z" /><path
       id="path311"
       d="m 476,584 -1,1 v 39 l 1,1 h 4 l 1,-1 v -39 l -1,-1 z m 0,1 h 4 v 39 h -4 z" /><path
       id="path312"
       d="m 446,632 -1,1 v 39 l 1,1 h 4 l 1,-1 v -39 l -1,-1 z m 0,1 h 4 v 39 h -4 z" /><path
       id="path313"
       d="m 456,632 -1,1 v 39 l 1,1 h 4 l 1,-1 v -39 l -1,-1 z m 0,1 h 4 v 39 h -4 z" /><path
       id="path314"
       d="m 466,632 -1,1 v 39 l 1,1 h 4 l 1,-1 v -39 l -1,-1 z m 0,1 h 4 v 39 h -4 z" /><path
       id="path315"
       d="m 476,632 -1,1 v 39 l 1,1 h 4 l 1,-1 v -39 l -1,-1 z m 0,1 h 4 v 39 h -4 z" /><path
       id="path316"
       d="m 446,680 -1,1 v 39 l 1,1 h 4 l 1,-1 v -39 l -1,-1 z m 0,1 h 4 v 39 h -4 z" /><path
       id="path317"
       d="m 456,680 -1,1 v 39 l 1,1 h 4 l 1,-1 v -39 l -1,-1 z m 0,1 h 4 v 39 h -4 z" /><path
       id="path318"
       d="m 466,680 -1,1 v 39 l 1,1 h 4 l 1,-1 v -39 l -1,-1 z m 0,1 h 4 v 39 h -4 z" /><path
       id="path319"
       d="m 476,680 -1,1 v 39 l 1,1 h 4 l 1,-1 v -39 l -1,-1 z m 0,1 h 4 v 39 h -4 z" /><path
       id="path320"
       d="m 446,777 -1,1 v 39 l 1,1 h 4 l 1,-1 v -39 l -1,-1 z m 0,1 h 4 v 39 h -4 z" /><path
       id="path321"
       d="m 456,777 -1,1 v 39 l 1,1 h 4 l 1,-1 v -39 l -1,-1 z m 0,1 h 4 v 39 h -4 z" /><path
       id="path322"
       d="m 466,777 -1,1 v 39 l 1,1 h 4 l 1,-1 v -39 l -1,-1 z m 0,1 h 4 v 39 h -4 z" /><path
       id="path323"
       d="m 476,777 -1,1 v 39 l 1,1 h 4 l 1,-1 v -39 l -1,-1 z m 0,1 h 4 v 39 h -4 z" /><path
       id="path324"
       d="m 446,825 -1,1 v 39 l 1,1 h 4 l 1,-1 v -39 l -1,-1 z m 0,1 h 4 v 39 h -4 z" /><path
       id="path325"
       d="m 456,825 -1,1 v 39 l 1,1 h 4 l 1,-1 v -39 l -1,-1 z m 0,1 h 4 v 39 h -4 z" /><path
       id="path326"
       d="m 466,825 -1,1 v 39 l 1,1 h 4 l 1,-1 v -39 l -1,-1 z m 0,1 h 4 v 39 h -4 z" /><path
       id="path327"
       d="m 476,825 -1,1 v 39 l 1,1 h 4 l 1,-1 v -39 l -1,-1 z m 0,1 h 4 v 39 h -4 z" /><path
       id="path328"
       d="m 446,873 -1,1 v 39 l 1,1 h 4 l 1,-1 v -39 l -1,-1 z m 0,1 h 4 v 39 h -4 z" /><path
       id="path329"
       d="m 456,873 -1,1 v 39 l 1,1 h 4 l 1,-1 v -39 l -1,-1 z m 0,1 h 4 v 39 h -4 z" /><path
       id="path330"
       d="m 466,873 -1,1 v 39 l 1,1 h 4 l 1,-1 v -39 l -1,-1 z m 0,1 h 4 v 39 h -4 z" /><path
       id="path331"
       d="m 476,873 -1,1 v 39 l 1,1 h 4 l 1,-1 v -39 l -1,-1 z m 0,1 h 4 v 39 h -4 z" /><path
       id="path332"
       d="m 446,921 -1,1 v 39 l 1,1 h 4 l 1,-1 v -39 l -1,-1 z m 0,1 h 4 v 39 h -4 z" /><path
       id="path333"
       d="m 456,921 -1,1 v 39 l 1,1 h 4 l 1,-1 v -39 l -1,-1 z m 0,1 h 4 v 39 h -4 z" /><path
       id="path334"
       d="m 466,921 -1,1 v 39 l 1,1 h 4 l 1,-1 v -39 l -1,-1 z m 0,1 h 4 v 39 h -4 z" /><path
       id="path335"
       d="m 476,921 -1,1 v 39 l 1,1 h 4 l 1,-1 v -39 l -1,-1 z m 0,1 h 4 v 39 h -4 z" /><path
       id="path336"
       d="m 446,969 -1,1 v 39 l 1,1 h 4 l 1,-1 v -39 l -1,-1 z m 0,1 h 4 v 39 h -4 z" /><path
       id="path337"
       d="m 456,969 -1,1 v 39 l 1,1 h 4 l 1,-1 v -39 l -1,-1 z m 0,1 h 4 v 39 h -4 z" /><path
       id="path338"
       d="m 466,969 -1,1 v 39 l 1,1 h 4 l 1,-1 v -39 l -1,-1 z m 0,1 h 4 v 39 h -4 z" /><path
       id="path339"
       d="m 476,969 -1,1 v 39 l 1,1 h 4 l 1,-1 v -39 l -1,-1 z m 0,1 h 4 v 39 h -4 z" /><path
       id="path340"
       d="m 446,729 -1,1 v 39 l 1,1 h 4 l 1,-1 v -39 l -1,-1 z m 0,1 h 4 v 39 h -4 z" /><path
       id="path341"
       d="m 456,729 -1,1 v 39 l 1,1 h 4 l 1,-1 v -39 l -1,-1 z m 0,1 h 4 v 39 h -4 z" /><path
       id="path342"
       d="m 466,729 -1,1 v 39 l 1,1 h 4 l 1,-1 v -39 l -1,-1 z m 0,1 h 4 v 39 h -4 z" /><path
       id="path343"
       d="m 476,729 -1,1 v 39 l 1,1 h 4 l 1,-1 v -39 l -1,-1 z m 0,1 h 4 v 39 h -4 z" /><path
       id="path51"
       d="m 159,175 -1,1 v 43 l 1,1 h 3 l 1,-1 v -43 l -1,-1 z m 0,1 h 3 v 43 h -3 z" /><path
       id="path52"
       d="m 169,175 -1,1 v 43 l 1,1 h 3 l 1,-1 v -43 l -1,-1 z m 0,1 h 3 v 43 h -3 z" /><path
       id="path53"
       d="m 179,175 -1,1 v 43 l 1,1 h 3 l 1,-1 v -43 l -1,-1 z m 0,1 h 3 v 43 h -3 z" /><path
       id="path54"
       d="m 189,175 -1,1 v 43 l 1,1 h 3 l 1,-1 v -43 l -1,-1 z m 0,1 h 3 v 43 h -3 z" /><path
       id="path55"
       d="m 199,175 -1,1 v 43 l 1,1 h 3 l 1,-1 v -43 l -1,-1 z m 0,1 h 3 v 43 h -3 z" /><path
       id="path56"
       d="m 209,175 -1,1 v 43 l 1,1 h 3 l 1,-1 v -43 l -1,-1 z m 0,1 h 3 v 43 h -3 z" /><path
       id="path57"
       d="m 219,175 -1,1 v 43 l 1,1 h 3 l 1,-1 v -43 l -1,-1 z m 0,1 h 3 v 43 h -3 z" /><path
       id="path58"
       d="m 229,175 -1,1 v 43 l 1,1 h 3 l 1,-1 v -43 l -1,-1 z m 0,1 h 3 v 43 h -3 z" /><path
       id="path59"
       d="m 239,175 -1,1 v 43 l 1,1 h 3 l 1,-1 v -43 l -1,-1 z m 0,1 h 3 v 43 h -3 z" /><path
       id="path60"
       d="m 249,175 -1,1 v 43 l 1,1 h 3 l 1,-1 v -43 l -1,-1 z m 0,1 h 3 v 43 h -3 z" /><path
       id="path61"
       d="m 259,175 -1,1 v 43 l 1,1 h 3 l 1,-1 v -43 l -1,-1 z m 0,1 h 3 v 43 h -3 z" /><path
       id="path62"
       d="m 269,175 -1,1 v 43 l 1,1 h 3 l 1,-1 v -43 l -1,-1 z m 0,1 h 3 v 43 h -3 z" /><path
       id="path63"
       d="m 279,175 -1,1 v 43 l 1,1 h 3 l 1,-1 v -43 l -1,-1 z m 0,1 h 3 v 43 h -3 z" /><path
       id="path64"
       d="m 289,175 -1,1 v 43 l 1,1 h 3 l 1,-1 v -43 l -1,-1 z m 0,1 h 3 v 43 h -3 z" /><path
       id="path65"
       d="m 299,175 -1,1 v 43 l 1,1 h 3 l 1,-1 v -43 l -1,-1 z m 0,1 h 3 v 43 h -3 z" /><path
       id="path66"
       d="m 309,175 -1,1 v 43 l 1,1 h 3 l 1,-1 v -43 l -1,-1 z m 0,1 h 3 v 43 h -3 z" /><path
       id="path67"
       d="m 319,175 -1,1 v 43 l 1,1 h 3 l 1,-1 v -43 l -1,-1 z m 0,1 h 3 v 43 h -3 z" /><path
       id="path68"
       d="m 329,175 -1,1 v 43 l 1,1 h 3 l 1,-1 v -43 l -1,-1 z m 0,1 h 3 v 43 h -3 z" /><path
       id="path69"
       d="m 339,175 -1,1 v 43 l 1,1 h 3 l 1,-1 v -43 l -1,-1 z m 0,1 h 3 v 43 h -3 z" /><path
       id="path70"
       d="m 349,175 -1,1 v 43 l 1,1 h 3 l 1,-1 v -43 l -1,-1 z m 0,1 h 3 v 43 h -3 z" /><path
       id="path71"
       d="m 359,175 -1,1 v 43 l 1,1 h 3 l 1,-1 v -43 l -1,-1 z m 0,1 h 3 v 43 h -3 z" /><path
       id="path72"
       d="m 369,175 -1,1 v 43 l 1,1 h 3 l 1,-1 v -43 l -1,-1 z m 0,1 h 3 v 43 h -3 z" /><path
       id="path73"
       d="m 379,175 -1,1 v 43 l 1,1 h 3 l 1,-1 v -43 l -1,-1 z m 0,1 h 3 v 43 h -3 z" /><path
       id="path74"
       d="m 389,175 -1,1 v 43 l 1,1 h 3 l 1,-1 v -43 l -1,-1 z m 0,1 h 3 v 43 h -3 z" /><path
       id="path75"
       d="m 399,175 -1,1 v 43 l 1,1 h 3 l 1,-1 v -43 l -1,-1 z m 0,1 h 3 v 43 h -3 z" /><path
       id="path76"
       d="m 409,175 -1,1 v 43 l 1,1 h 3 l 1,-1 v -43 l -1,-1 z m 0,1 h 3 v 43 h -3 z" /><path
       id="path77"
       d="m 419,175 -1,1 v 43 l 1,1 h 3 l 1,-1 v -43 l -1,-1 z m 0,1 h 3 v 43 h -3 z" /><path
       id="path78"
       d="m 159,234 -1,1 v 43 l 1,1 h 3 l 1,-1 v -43 l -1,-1 z m 0,1 h 3 v 43 h -3 z" /><path
       id="path79"
       d="m 169,234 -1,1 v 43 l 1,1 h 3 l 1,-1 v -43 l -1,-1 z m 0,1 h 3 v 43 h -3 z" /><path
       id="path80"
       d="m 179,234 -1,1 v 43 l 1,1 h 3 l 1,-1 v -43 l -1,-1 z m 0,1 h 3 v 43 h -3 z" /><path
       id="path81"
       d="m 189,234 -1,1 v 43 l 1,1 h 3 l 1,-1 v -43 l -1,-1 z m 0,1 h 3 v 43 h -3 z" /><path
       id="path82"
       d="m 199,234 -1,1 v 43 l 1,1 h 3 l 1,-1 v -43 l -1,-1 z m 0,1 h 3 v 43 h -3 z" /><path
       id="path83"
       d="m 209,234 -1,1 v 43 l 1,1 h 3 l 1,-1 v -43 l -1,-1 z m 0,1 h 3 v 43 h -3 z" /><path
       id="path84"
       d="m 219,234 -1,1 v 43 l 1,1 h 3 l 1,-1 v -43 l -1,-1 z m 0,1 h 3 v 43 h -3 z" /><path
       id="path85"
       d="m 229,234 -1,1 v 43 l 1,1 h 3 l 1,-1 v -43 l -1,-1 z m 0,1 h 3 v 43 h -3 z" /><path
       id="path86"
       d="m 239,234 -1,1 v 43 l 1,1 h 3 l 1,-1 v -43 l -1,-1 z m 0,1 h 3 v 43 h -3 z" /><path
       id="path87"
       d="m 249,234 -1,1 v 43 l 1,1 h 3 l 1,-1 v -43 l -1,-1 z m 0,1 h 3 v 43 h -3 z" /><path
       id="path88"
       d="m 259,234 -1,1 v 43 l 1,1 h 3 l 1,-1 v -43 l -1,-1 z m 0,1 h 3 v 43 h -3 z" /><path
       id="path89"
       d="m 269,234 -1,1 v 43 l 1,1 h 3 l 1,-1 v -43 l -1,-1 z m 0,1 h 3 v 43 h -3 z" /><path
       id="path90"
       d="m 279,234 -1,1 v 43 l 1,1 h 3 l 1,-1 v -43 l -1,-1 z m 0,1 h 3 v 43 h -3 z" /><path
       id="path91"
       d="m 289,234 -1,1 v 43 l 1,1 h 3 l 1,-1 v -43 l -1,-1 z m 0,1 h 3 v 43 h -3 z" /><path
       id="path92"
       d="m 299,234 -1,1 v 43 l 1,1 h 3 l 1,-1 v -43 l -1,-1 z m 0,1 h 3 v 43 h -3 z" /><path
       id="path93"
       d="m 309,234 -1,1 v 43 l 1,1 h 3 l 1,-1 v -43 l -1,-1 z m 0,1 h 3 v 43 h -3 z" /><path
       id="path94"
       d="m 319,234 -1,1 v 43 l 1,1 h 3 l 1,-1 v -43 l -1,-1 z m 0,1 h 3 v 43 h -3 z" /><path
       id="path95"
       d="m 329,234 -1,1 v 43 l 1,1 h 3 l 1,-1 v -43 l -1,-1 z m 0,1 h 3 v 43 h -3 z" /><path
       id="path96"
       d="m 339,234 -1,1 v 43 l 1,1 h 3 l 1,-1 v -43 l -1,-1 z m 0,1 h 3 v 43 h -3 z" /><path
       id="path97"
       d="m 349,234 -1,1 v 43 l 1,1 h 3 l 1,-1 v -43 l -1,-1 z m 0,1 h 3 v 43 h -3 z" /><path
       id="path98"
       d="m 359,234 -1,1 v 43 l 1,1 h 3 l 1,-1 v -43 l -1,-1 z m 0,1 h 3 v 43 h -3 z" /><path
       id="path99"
       d="m 369,234 -1,1 v 43 l 1,1 h 3 l 1,-1 v -43 l -1,-1 z m 0,1 h 3 v 43 h -3 z" /><path
       id="path100"
       d="m 379,234 -1,1 v 43 l 1,1 h 3 l 1,-1 v -43 l -1,-1 z m 0,1 h 3 v 43 h -3 z" /><path
       id="path101"
       d="m 389,234 -1,1 v 43 l 1,1 h 3 l 1,-1 v -43 l -1,-1 z m 0,1 h 3 v 43 h -3 z" /><path
       id="path102"
       d="m 399,234 -1,1 v 43 l 1,1 h 3 l 1,-1 v -43 l -1,-1 z m 0,1 h 3 v 43 h -3 z" /><path
       id="path103"
       d="m 409,234 -1,1 v 43 l 1,1 h 3 l 1,-1 v -43 l -1,-1 z m 0,1 h 3 v 43 h -3 z" /><path
       id="path104"
       d="m 419,234 -1,1 v 43 l 1,1 h 3 l 1,-1 v -43 l -1,-1 z m 0,1 h 3 v 43 h -3 z" /><path
       id="path105"
       d="m 159,293 -1,1 v 43 l 1,1 h 3 l 1,-1 v -43 l -1,-1 z m 0,1 h 3 v 43 h -3 z" /><path
       id="path106"
       d="m 169,293 -1,1 v 43 l 1,1 h 3 l 1,-1 v -43 l -1,-1 z m 0,1 h 3 v 43 h -3 z" /><path
       id="path107"
       d="m 179,293 -1,1 v 43 l 1,1 h 3 l 1,-1 v -43 l -1,-1 z m 0,1 h 3 v 43 h -3 z" /><path
       id="path108"
       d="m 189,293 -1,1 v 43 l 1,1 h 3 l 1,-1 v -43 l -1,-1 z m 0,1 h 3 v 43 h -3 z" /><path
       id="path109"
       d="m 199,293 -1,1 v 43 l 1,1 h 3 l 1,-1 v -43 l -1,-1 z m 0,1 h 3 v 43 h -3 z" /><path
       id="path110"
       d="m 209,293 -1,1 v 43 l 1,1 h 3 l 1,-1 v -43 l -1,-1 z m 0,1 h 3 v 43 h -3 z" /><path
       id="path111"
       d="m 219,293 -1,1 v 43 l 1,1 h 3 l 1,-1 v -43 l -1,-1 z m 0,1 h 3 v 43 h -3 z" /><path
       id="path112"
       d="m 229,293 -1,1 v 43 l 1,1 h 3 l 1,-1 v -43 l -1,-1 z m 0,1 h 3 v 43 h -3 z" /><path
       id="path113"
       d="m 239,293 -1,1 v 43 l 1,1 h 3 l 1,-1 v -43 l -1,-1 z m 0,1 h 3 v 43 h -3 z" /><path
       id="path114"
       d="m 249,293 -1,1 v 43 l 1,1 h 3 l 1,-1 v -43 l -1,-1 z m 0,1 h 3 v 43 h -3 z" /><path
       id="path115"
       d="m 259,293 -1,1 v 43 l 1,1 h 3 l 1,-1 v -43 l -1,-1 z m 0,1 h 3 v 43 h -3 z" /><path
       id="path116"
       d="m 269,293 -1,1 v 43 l 1,1 h 3 l 1,-1 v -43 l -1,-1 z m 0,1 h 3 v 43 h -3 z" /><path
       id="path117"
       d="m 279,293 -1,1 v 43 l 1,1 h 3 l 1,-1 v -43 l -1,-1 z m 0,1 h 3 v 43 h -3 z" /><path
       id="path118"
       d="m 289,293 -1,1 v 43 l 1,1 h 3 l 1,-1 v -43 l -1,-1 z m 0,1 h 3 v 43 h -3 z" /><path
       id="path119"
       d="m 299,293 -1,1 v 43 l 1,1 h 3 l 1,-1 v -43 l -1,-1 z m 0,1 h 3 v 43 h -3 z" /><path
       id="path120"
       d="m 309,293 -1,1 v 43 l 1,1 h 3 l 1,-1 v -43 l -1,-1 z m 0,1 h 3 v 43 h -3 z" /><path
       id="path121"
       d="m 319,293 -1,1 v 43 l 1,1 h 3 l 1,-1 v -43 l -1,-1 z m 0,1 h 3 v 43 h -3 z" /><path
       id="path122"
       d="m 329,293 -1,1 v 43 l 1,1 h 3 l 1,-1 v -43 l -1,-1 z m 0,1 h 3 v 43 h -3 z" /><path
       id="path123"
       d="m 339,293 -1,1 v 43 l 1,1 h 3 l 1,-1 v -43 l -1,-1 z m 0,1 h 3 v 43 h -3 z" /><path
       id="path124"
       d="m 349,293 -1,1 v 43 l 1,1 h 3 l 1,-1 v -43 l -1,-1 z m 0,1 h 3 v 43 h -3 z" /><path
       id="path125"
       d="m 359,293 -1,1 v 43 l 1,1 h 3 l 1,-1 v -43 l -1,-1 z m 0,1 h 3 v 43 h -3 z" /><path
       id="path126"
       d="m 369,293 -1,1 v 43 l 1,1 h 3 l 1,-1 v -43 l -1,-1 z m 0,1 h 3 v 43 h -3 z" /><path
       id="path127"
       d="m 379,293 -1,1 v 43 l 1,1 h 3 l 1,-1 v -43 l -1,-1 z m 0,1 h 3 v 43 h -3 z" /><path
       id="path128"
       d="m 389,293 -1,1 v 43 l 1,1 h 3 l 1,-1 v -43 l -1,-1 z m 0,1 h 3 v 43 h -3 z" /><path
       id="path129"
       d="m 399,293 -1,1 v 43 l 1,1 h 3 l 1,-1 v -43 l -1,-1 z m 0,1 h 3 v 43 h -3 z" /><path
       id="path130"
       d="m 409,293 -1,1 v 43 l 1,1 h 3 l 1,-1 v -43 l -1,-1 z m 0,1 h 3 v 43 h -3 z" /><path
       id="path131"
       d="m 419,293 -1,1 v 43 l 1,1 h 3 l 1,-1 v -43 l -1,-1 z m 0,1 h 3 v 43 h -3 z" /><path
       id="path132"
       d="m 159,352 -1,1 v 43 l 1,1 h 3 l 1,-1 v -43 l -1,-1 z m 0,1 h 3 v 43 h -3 z" /><path
       id="path133"
       d="m 169,352 -1,1 v 43 l 1,1 h 3 l 1,-1 v -43 l -1,-1 z m 0,1 h 3 v 43 h -3 z" /><path
       id="path134"
       d="m 179,352 -1,1 v 43 l 1,1 h 3 l 1,-1 v -43 l -1,-1 z m 0,1 h 3 v 43 h -3 z" /><path
       id="path135"
       d="m 189,352 -1,1 v 43 l 1,1 h 3 l 1,-1 v -43 l -1,-1 z m 0,1 h 3 v 43 h -3 z" /><path
       id="path136"
       d="m 199,352 -1,1 v 43 l 1,1 h 3 l 1,-1 v -43 l -1,-1 z m 0,1 h 3 v 43 h -3 z" /><path
       id="path137"
       d="m 209,352 -1,1 v 43 l 1,1 h 3 l 1,-1 v -43 l -1,-1 z m 0,1 h 3 v 43 h -3 z" /><path
       id="path138"
       d="m 219,352 -1,1 v 43 l 1,1 h 3 l 1,-1 v -43 l -1,-1 z m 0,1 h 3 v 43 h -3 z" /><path
       id="path139"
       d="m 229,352 -1,1 v 43 l 1,1 h 3 l 1,-1 v -43 l -1,-1 z m 0,1 h 3 v 43 h -3 z" /><path
       id="path140"
       d="m 239,352 -1,1 v 43 l 1,1 h 3 l 1,-1 v -43 l -1,-1 z m 0,1 h 3 v 43 h -3 z" /><path
       id="path141"
       d="m 249,352 -1,1 v 43 l 1,1 h 3 l 1,-1 v -43 l -1,-1 z m 0,1 h 3 v 43 h -3 z" /><path
       id="path142"
       d="m 259,352 -1,1 v 43 l 1,1 h 3 l 1,-1 v -43 l -1,-1 z m 0,1 h 3 v 43 h -3 z" /><path
       id="path143"
       d="m 269,352 -1,1 v 43 l 1,1 h 3 l 1,-1 v -43 l -1,-1 z m 0,1 h 3 v 43 h -3 z" /><path
       id="path144"
       d="m 279,352 -1,1 v 43 l 1,1 h 3 l 1,-1 v -43 l -1,-1 z m 0,1 h 3 v 43 h -3 z" /><path
       id="path145"
       d="m 289,352 -1,1 v 43 l 1,1 h 3 l 1,-1 v -43 l -1,-1 z m 0,1 h 3 v 43 h -3 z" /><path
       id="path146"
       d="m 299,352 -1,1 v 43 l 1,1 h 3 l 1,-1 v -43 l -1,-1 z m 0,1 h 3 v 43 h -3 z" /><path
       id="path147"
       d="m 309,352 -1,1 v 43 l 1,1 h 3 l 1,-1 v -43 l -1,-1 z m 0,1 h 3 v 43 h -3 z" /><path
       id="path148"
       d="m 319,352 -1,1 v 43 l 1,1 h 3 l 1,-1 v -43 l -1,-1 z m 0,1 h 3 v 43 h -3 z" /><path
       id="path149"
       d="m 329,352 -1,1 v 43 l 1,1 h 3 l 1,-1 v -43 l -1,-1 z m 0,1 h 3 v 43 h -3 z" /><path
       id="path150"
       d="m 339,352 -1,1 v 43 l 1,1 h 3 l 1,-1 v -43 l -1,-1 z m 0,1 h 3 v 43 h -3 z" /><path
       id="path151"
       d="m 349,352 -1,1 v 43 l 1,1 h 3 l 1,-1 v -43 l -1,-1 z m 0,1 h 3 v 43 h -3 z" /><path
       id="path152"
       d="m 359,352 -1,1 v 43 l 1,1 h 3 l 1,-1 v -43 l -1,-1 z m 0,1 h 3 v 43 h -3 z" /><path
       id="path153"
       d="m 369,352 -1,1 v 43 l 1,1 h 3 l 1,-1 v -43 l -1,-1 z m 0,1 h 3 v 43 h -3 z" /><path
       id="path154"
       d="m 379,352 -1,1 v 43 l 1,1 h 3 l 1,-1 v -43 l -1,-1 z m 0,1 h 3 v 43 h -3 z" /><path
       id="path155"
       d="m 389,352 -1,1 v 43 l 1,1 h 3 l 1,-1 v -43 l -1,-1 z m 0,1 h 3 v 43 h -3 z" /><path
       id="path156"
       d="m 399,352 -1,1 v 43 l 1,1 h 3 l 1,-1 v -43 l -1,-1 z m 0,1 h 3 v 43 h -3 z" /><path
       id="path157"
       d="m 409,352 -1,1 v 43 l 1,1 h 3 l 1,-1 v -43 l -1,-1 z m 0,1 h 3 v 43 h -3 z" /><path
       id="path158"
       d="m 419,352 -1,1 v 43 l 1,1 h 3 l 1,-1 v -43 l -1,-1 z m 0,1 h 3 v 43 h -3 z" /><path
       id="path159"
       d="m 159,411 -1,1 v 43 l 1,1 h 3 l 1,-1 v -43 l -1,-1 z m 0,1 h 3 v 43 h -3 z" /><path
       id="path160"
       d="m 169,411 -1,1 v 43 l 1,1 h 3 l 1,-1 v -43 l -1,-1 z m 0,1 h 3 v 43 h -3 z" /><path
       id="path161"
       d="m 179,411 -1,1 v 43 l 1,1 h 3 l 1,-1 v -43 l -1,-1 z m 0,1 h 3 v 43 h -3 z" /><path
       id="path162"
       d="m 189,411 -1,1 v 43 l 1,1 h 3 l 1,-1 v -43 l -1,-1 z m 0,1 h 3 v 43 h -3 z" /><path
       id="path163"
       d="m 199,411 -1,1 v 43 l 1,1 h 3 l 1,-1 v -43 l -1,-1 z m 0,1 h 3 v 43 h -3 z" /><path
       id="path164"
       d="m 209,411 -1,1 v 43 l 1,1 h 3 l 1,-1 v -43 l -1,-1 z m 0,1 h 3 v 43 h -3 z" /><path
       id="path165"
       d="m 219,411 -1,1 v 43 l 1,1 h 3 l 1,-1 v -43 l -1,-1 z m 0,1 h 3 v 43 h -3 z" /><path
       id="path166"
       d="m 229,411 -1,1 v 43 l 1,1 h 3 l 1,-1 v -43 l -1,-1 z m 0,1 h 3 v 43 h -3 z" /><path
       id="path167"
       d="m 239,411 -1,1 v 43 l 1,1 h 3 l 1,-1 v -43 l -1,-1 z m 0,1 h 3 v 43 h -3 z" /><path
       id="path168"
       d="m 249,411 -1,1 v 43 l 1,1 h 3 l 1,-1 v -43 l -1,-1 z m 0,1 h 3 v 43 h -3 z" /><path
       id="path169"
       d="m 259,411 -1,1 v 43 l 1,1 h 3 l 1,-1 v -43 l -1,-1 z m 0,1 h 3 v 43 h -3 z" /><path
       id="path170"
       d="m 269,411 -1,1 v 43 l 1,1 h 3 l 1,-1 v -43 l -1,-1 z m 0,1 h 3 v 43 h -3 z" /><path
       id="path171"
       d="m 279,411 -1,1 v 43 l 1,1 h 3 l 1,-1 v -43 l -1,-1 z m 0,1 h 3 v 43 h -3 z" /><path
       id="path172"
       d="m 289,411 -1,1 v 43 l 1,1 h 3 l 1,-1 v -43 l -1,-1 z m 0,1 h 3 v 43 h -3 z" /><path
       id="path173"
       d="m 299,411 -1,1 v 38 l 1,1 h 3 l 1,-1 v -38 l -1,-1 z m 0,1 h 3 v 38 h -3 z" /><path
       id="path174"
       d="m 309,411 -1,1 v 26 l 1,1 h 3 l 1,-1 v -26 l -1,-1 z m 0,1 h 3 v 26 h -3 z" /><path
       id="path175"
       d="m 319,411 -1,1 v 16 l 1,1 h 3 l 1,-1 v -16 l -1,-1 z m 0,1 h 3 v 16 h -3 z" /><path
       id="path176"
       d="m 329,411 -1,1 v 16 l 1,1 h 3 l 1,-1 v -16 l -1,-1 z m 0,1 h 3 v 16 h -3 z" /><path
       id="path177"
       d="m 339,411 -1,1 v 16 l 1,1 h 3 l 1,-1 v -16 l -1,-1 z m 0,1 h 3 v 16 h -3 z" /><path
       id="path178"
       d="m 349,411 -1,1 v 16 l 1,1 h 3 l 1,-1 v -16 l -1,-1 z m 0,1 h 3 v 16 h -3 z" /><path
       id="path179"
       d="m 359,411 -1,1 v 16 l 1,1 h 3 l 1,-1 v -16 l -1,-1 z m 0,1 h 3 v 16 h -3 z" /><path
       id="path180"
       d="m 369,411 -1,1 v 16 l 1,1 h 3 l 1,-1 v -16 l -1,-1 z m 0,1 h 3 v 16 h -3 z" /><path
       id="path181"
       d="m 379,411 -1,1 v 16 l 1,1 h 3 l 1,-1 v -16 l -1,-1 z m 0,1 h 3 v 16 h -3 z" /><path
       id="path182"
       d="m 389,411 -1,1 v 16 l 1,1 h 3 l 1,-1 v -16 l -1,-1 z m 0,1 h 3 v 16 h -3 z" /><path
       id="path183"
       d="m 399,411 -1,1 v 16 l 1,1 h 3 l 1,-1 v -16 l -1,-1 z m 0,1 h 3 v 16 h -3 z" /><path
       id="path184"
       d="m 409,411 -1,1 v 16 l 1,1 h 3 l 1,-1 v -16 l -1,-1 z m 0,1 h 3 v 16 h -3 z" /><path
       id="path185"
       d="m 419,411 -1,1 v 16 l 1,1 h 3 l 1,-1 v -16 l -1,-1 z m 0,1 h 3 v 16 h -3 z" /><path
       id="path186"
       d="m 159,470 -1,1 v 43 l 1,1 h 3 l 1,-1 v -43 l -1,-1 z m 0,1 h 3 v 43 h -3 z" /><path
       id="path187"
       d="m 169,470 -1,1 v 43 l 1,1 h 3 l 1,-1 v -43 l -1,-1 z m 0,1 h 3 v 43 h -3 z" /><path
       id="path188"
       d="m 179,470 -1,1 v 43 l 1,1 h 3 l 1,-1 v -43 l -1,-1 z m 0,1 h 3 v 43 h -3 z" /><path
       id="path189"
       d="m 189,470 -1,1 v 43 l 1,1 h 3 l 1,-1 v -43 l -1,-1 z m 0,1 h 3 v 43 h -3 z" /><path
       id="path190"
       d="m 199,470 -1,1 v 43 l 1,1 h 3 l 1,-1 v -43 l -1,-1 z m 0,1 h 3 v 43 h -3 z" /><path
       id="path191"
       d="m 209,470 -1,1 v 43 l 1,1 h 3 l 1,-1 v -43 l -1,-1 z m 0,1 h 3 v 43 h -3 z" /><path
       id="path192"
       d="m 219,470 -1,1 v 43 l 1,1 h 3 l 1,-1 v -43 l -1,-1 z m 0,1 h 3 v 43 h -3 z" /><path
       id="path193"
       d="m 229,470 -1,1 v 43 l 1,1 h 3 l 1,-1 v -43 l -1,-1 z m 0,1 h 3 v 43 h -3 z" /><path
       id="path194"
       d="m 239,470 -1,1 v 43 l 1,1 h 3 l 1,-1 v -43 l -1,-1 z m 0,1 h 3 v 43 h -3 z" /><path
       id="path195"
       d="m 249,470 -1,1 v 43 l 1,1 h 3 l 1,-1 v -43 l -1,-1 z m 0,1 h 3 v 43 h -3 z" /><path
       id="path196"
       d="m 259,470 -1,1 v 43 l 1,1 h 3 l 1,-1 v -43 l -1,-1 z m 0,1 h 3 v 43 h -3 z" /><path
       id="path197"
       d="m 269,470 -1,1 v 43 l 1,1 h 3 l 1,-1 v -43 l -1,-1 z m 0,1 h 3 v 43 h -3 z" /><path
       id="path198"
       d="m 279,470 -1,1 v 43 l 1,1 h 3 l 1,-1 v -43 l -1,-1 z m 0,1 h 3 v 43 h -3 z" /><path
       id="path199"
       d="m 289,470 -1,1 v 43 l 1,1 h 3 l 1,-1 v -43 l -1,-1 z m 0,1 h 3 v 43 h -3 z" /><path
       id="path200"
       d="m 299,480 -1,1 v 33 l 1,1 h 3 l 1,-1 v -33 l -1,-1 z m 0,1 h 3 v 33 h -3 z" /><path
       id="path201"
       d="m 309,480 -1,1 v 33 l 1,1 h 3 l 1,-1 v -33 l -1,-1 z m 0,1 h 3 v 33 h -3 z" /><path
       id="path202"
       d="m 319,480 -1,1 v 33 l 1,1 h 3 l 1,-1 v -33 l -1,-1 z m 0,1 h 3 v 33 h -3 z" /><path
       id="path203"
       d="m 329,480 -1,1 v 33 l 1,1 h 3 l 1,-1 v -33 l -1,-1 z m 0,1 h 3 v 33 h -3 z" /><path
       id="path204"
       d="m 339,480 -1,1 v 33 l 1,1 h 3 l 1,-1 v -33 l -1,-1 z m 0,1 h 3 v 33 h -3 z" /><path
       id="path205"
       d="m 349,480 -1,1 v 33 l 1,1 h 3 l 1,-1 v -33 l -1,-1 z m 0,1 h 3 v 33 h -3 z" /><path
       id="path206"
       d="m 359,480 -1,1 v 33 l 1,1 h 3 l 1,-1 v -33 l -1,-1 z m 0,1 h 3 v 33 h -3 z" /><path
       id="path207"
       d="m 369,480 -1,1 v 33 l 1,1 h 3 l 1,-1 v -33 l -1,-1 z m 0,1 h 3 v 33 h -3 z" /><path
       id="path208"
       d="m 379,480 -1,1 v 33 l 1,1 h 3 l 1,-1 v -33 l -1,-1 z m 0,1 h 3 v 33 h -3 z" /><path
       id="path209"
       d="m 389,480 -1,1 v 33 l 1,1 h 3 l 1,-1 v -33 l -1,-1 z m 0,1 h 3 v 33 h -3 z" /><path
       id="path210"
       d="m 399,480 -1,1 v 33 l 1,1 h 3 l 1,-1 v -33 l -1,-1 z m 0,1 h 3 v 33 h -3 z" /><path
       id="path211"
       d="m 409,480 -1,1 v 33 l 1,1 h 3 l 1,-1 v -33 l -1,-1 z m 0,1 h 3 v 33 h -3 z" /><path
       id="path212"
       d="m 419,480 -1,1 v 33 l 1,1 h 3 l 1,-1 v -33 l -1,-1 z m 0,1 h 3 v 33 h -3 z" /><path
       id="path213"
       d="m 299,466 -1,1 v 6 l 1,1 h 3 l 1,-1 v -6 l -1,-1 z m 0,1 h 3 v 6 h -3 z" /><path
       id="path214"
       d="m 309,456 -1,1 v 16 l 1,1 h 3 l 1,-1 v -16 l -1,-1 z m 0,1 h 3 v 16 h -3 z" /><path
       id="path215"
       d="m 319,448 -1,1 v 24 l 1,1 h 3 l 1,-1 v -24 l -1,-1 z m 0,1 h 3 v 24 h -3 z" /><path
       id="path216"
       d="m 329,440 -1,1 v 32 l 1,1 h 3 l 1,-1 v -32 l -1,-1 z m 0,1 h 3 v 32 h -3 z" /><path
       id="path217"
       d="m 339,440 -1,1 v 32 l 1,1 h 3 l 1,-1 v -32 l -1,-1 z m 0,1 h 3 v 32 h -3 z" /><path
       id="path218"
       d="m 349,440 -1,1 v 32 l 1,1 h 3 l 1,-1 v -32 l -1,-1 z m 0,1 h 3 v 32 h -3 z" /><path
       id="path219"
       d="m 359,440 -1,1 v 32 l 1,1 h 3 l 1,-1 v -32 l -1,-1 z m 0,1 h 3 v 32 h -3 z" /><path
       id="path220"
       d="m 369,440 -1,1 v 32 l 1,1 h 3 l 1,-1 v -32 l -1,-1 z m 0,1 h 3 v 32 h -3 z" /><path
       id="path221"
       d="m 379,440 -1,1 v 32 l 1,1 h 3 l 1,-1 v -32 l -1,-1 z m 0,1 h 3 v 32 h -3 z" /><path
       id="path222"
       d="m 389,440 -1,1 v 32 l 1,1 h 3 l 1,-1 v -32 l -1,-1 z m 0,1 h 3 v 32 h -3 z" /><path
       id="path223"
       d="m 399,440 -1,1 v 32 l 1,1 h 3 l 1,-1 v -32 l -1,-1 z m 0,1 h 3 v 32 h -3 z" /><path
       id="path224"
       d="m 409,440 -1,1 v 32 l 1,1 h 3 l 1,-1 v -32 l -1,-1 z m 0,1 h 3 v 32 h -3 z" /><path
       id="path225"
       d="m 419,440 -1,1 v 32 l 1,1 h 3 l 1,-1 v -32 l -1,-1 z m 0,1 h 3 v 32 h -3 z" /><path
       id="path226"
       d="m 159,529 -1,1 v 43 l 1,1 h 3 l 1,-1 v -43 l -1,-1 z m 0,1 h 3 v 43 h -3 z" /><path
       id="path227"
       d="m 169,529 -1,1 v 43 l 1,1 h 3 l 1,-1 v -43 l -1,-1 z m 0,1 h 3 v 43 h -3 z" /><path
       id="path228"
       d="m 179,529 -1,1 v 43 l 1,1 h 3 l 1,-1 v -43 l -1,-1 z m 0,1 h 3 v 43 h -3 z" /><path
       id="path229"
       d="m 189,529 -1,1 v 43 l 1,1 h 3 l 1,-1 v -43 l -1,-1 z m 0,1 h 3 v 43 h -3 z" /><path
       id="path230"
       d="m 199,529 -1,1 v 43 l 1,1 h 3 l 1,-1 v -43 l -1,-1 z m 0,1 h 3 v 43 h -3 z" /><path
       id="path231"
       d="m 209,529 -1,1 v 43 l 1,1 h 3 l 1,-1 v -43 l -1,-1 z m 0,1 h 3 v 43 h -3 z" /><path
       id="path232"
       d="m 219,529 -1,1 v 43 l 1,1 h 3 l 1,-1 v -43 l -1,-1 z m 0,1 h 3 v 43 h -3 z" /><path
       id="path233"
       d="m 229,529 -1,1 v 43 l 1,1 h 3 l 1,-1 v -43 l -1,-1 z m 0,1 h 3 v 43 h -3 z" /><path
       id="path234"
       d="m 239,529 -1,1 v 43 l 1,1 h 3 l 1,-1 v -43 l -1,-1 z m 0,1 h 3 v 43 h -3 z" /><path
       id="path235"
       d="m 249,529 -1,1 v 43 l 1,1 h 3 l 1,-1 v -43 l -1,-1 z m 0,1 h 3 v 43 h -3 z" /><path
       id="path236"
       d="m 259,529 -1,1 v 43 l 1,1 h 3 l 1,-1 v -43 l -1,-1 z m 0,1 h 3 v 43 h -3 z" /><path
       id="path237"
       d="m 269,529 -1,1 v 43 l 1,1 h 3 l 1,-1 v -43 l -1,-1 z m 0,1 h 3 v 43 h -3 z" /><path
       id="path238"
       d="m 279,529 -1,1 v 43 l 1,1 h 3 l 1,-1 v -43 l -1,-1 z m 0,1 h 3 v 43 h -3 z" /><path
       id="path239"
       d="m 289,529 -1,1 v 43 l 1,1 h 3 l 1,-1 v -43 l -1,-1 z m 0,1 h 3 v 43 h -3 z" /><path
       id="path240"
       d="m 299,529 -1,1 v 43 l 1,1 h 3 l 1,-1 v -43 l -1,-1 z m 0,1 h 3 v 43 h -3 z" /><path
       id="path241"
       d="m 309,529 -1,1 v 43 l 1,1 h 3 l 1,-1 v -43 l -1,-1 z m 0,1 h 3 v 43 h -3 z" /><path
       id="path242"
       d="m 319,529 -1,1 v 43 l 1,1 h 3 l 1,-1 v -43 l -1,-1 z m 0,1 h 3 v 43 h -3 z" /><path
       id="path243"
       d="m 329,529 -1,1 v 43 l 1,1 h 3 l 1,-1 v -43 l -1,-1 z m 0,1 h 3 v 43 h -3 z" /><path
       id="path244"
       d="m 339,529 -1,1 v 43 l 1,1 h 3 l 1,-1 v -43 l -1,-1 z m 0,1 h 3 v 43 h -3 z" /><path
       id="path245"
       d="m 349,529 -1,1 v 43 l 1,1 h 3 l 1,-1 v -43 l -1,-1 z m 0,1 h 3 v 43 h -3 z" /><path
       id="path246"
       d="m 359,529 -1,1 v 43 l 1,1 h 3 l 1,-1 v -43 l -1,-1 z m 0,1 h 3 v 43 h -3 z" /><path
       id="path247"
       d="m 369,529 -1,1 v 43 l 1,1 h 3 l 1,-1 v -43 l -1,-1 z m 0,1 h 3 v 43 h -3 z" /><path
       id="path248"
       d="m 379,529 -1,1 v 43 l 1,1 h 3 l 1,-1 v -43 l -1,-1 z m 0,1 h 3 v 43 h -3 z" /><path
       id="path249"
       d="m 389,529 -1,1 v 43 l 1,1 h 3 l 1,-1 v -43 l -1,-1 z m 0,1 h 3 v 43 h -3 z" /><path
       id="path250"
       d="m 399,529 -1,1 v 43 l 1,1 h 3 l 1,-1 v -43 l -1,-1 z m 0,1 h 3 v 43 h -3 z" /><path
       id="path251"
       d="m 409,529 -1,1 v 43 l 1,1 h 3 l 1,-1 v -43 l -1,-1 z m 0,1 h 3 v 43 h -3 z" /><path
       id="path252"
       d="m 419,529 -1,1 v 43 l 1,1 h 3 l 1,-1 v -43 l -1,-1 z m 0,1 h 3 v 43 h -3 z" /><path
       id="path253"
       d="m 159,588 -1,1 v 43 l 1,1 h 3 l 1,-1 v -43 l -1,-1 z m 0,1 h 3 v 43 h -3 z" /><path
       id="path254"
       d="m 169,588 -1,1 v 43 l 1,1 h 3 l 1,-1 v -43 l -1,-1 z m 0,1 h 3 v 43 h -3 z" /><path
       id="path255"
       d="m 179,588 -1,1 v 43 l 1,1 h 3 l 1,-1 v -43 l -1,-1 z m 0,1 h 3 v 43 h -3 z" /><path
       id="path256"
       d="m 189,588 -1,1 v 43 l 1,1 h 3 l 1,-1 v -43 l -1,-1 z m 0,1 h 3 v 43 h -3 z" /><path
       id="path257"
       d="m 199,588 -1,1 v 43 l 1,1 h 3 l 1,-1 v -43 l -1,-1 z m 0,1 h 3 v 43 h -3 z" /><path
       id="path258"
       d="m 209,588 -1,1 v 43 l 1,1 h 3 l 1,-1 v -43 l -1,-1 z m 0,1 h 3 v 43 h -3 z" /><path
       id="path259"
       d="m 219,588 -1,1 v 43 l 1,1 h 3 l 1,-1 v -43 l -1,-1 z m 0,1 h 3 v 43 h -3 z" /><path
       id="path260"
       d="m 229,588 -1,1 v 43 l 1,1 h 3 l 1,-1 v -43 l -1,-1 z m 0,1 h 3 v 43 h -3 z" /><path
       id="path261"
       d="m 239,588 -1,1 v 43 l 1,1 h 3 l 1,-1 v -43 l -1,-1 z m 0,1 h 3 v 43 h -3 z" /><path
       id="path262"
       d="m 249,588 -1,1 v 43 l 1,1 h 3 l 1,-1 v -43 l -1,-1 z m 0,1 h 3 v 43 h -3 z" /><path
       id="path263"
       d="m 259,588 -1,1 v 43 l 1,1 h 3 l 1,-1 v -43 l -1,-1 z m 0,1 h 3 v 43 h -3 z" /><path
       id="path264"
       d="m 269,588 -1,1 v 43 l 1,1 h 3 l 1,-1 v -43 l -1,-1 z m 0,1 h 3 v 43 h -3 z" /><path
       id="path265"
       d="m 279,588 -1,1 v 43 l 1,1 h 3 l 1,-1 v -43 l -1,-1 z m 0,1 h 3 v 43 h -3 z" /><path
       id="path266"
       d="m 289,588 -1,1 v 43 l 1,1 h 3 l 1,-1 v -43 l -1,-1 z m 0,1 h 3 v 43 h -3 z" /><path
       id="path267"
       d="m 299,588 -1,1 v 43 l 1,1 h 3 l 1,-1 v -43 l -1,-1 z m 0,1 h 3 v 43 h -3 z" /><path
       id="path268"
       d="m 309,588 -1,1 v 43 l 1,1 h 3 l 1,-1 v -43 l -1,-1 z m 0,1 h 3 v 43 h -3 z" /><path
       id="path269"
       d="m 319,588 -1,1 v 43 l 1,1 h 3 l 1,-1 v -43 l -1,-1 z m 0,1 h 3 v 43 h -3 z" /><path
       id="path270"
       d="m 329,588 -1,1 v 43 l 1,1 h 3 l 1,-1 v -43 l -1,-1 z m 0,1 h 3 v 43 h -3 z" /><path
       id="path271"
       d="m 339,588 -1,1 v 43 l 1,1 h 3 l 1,-1 v -43 l -1,-1 z m 0,1 h 3 v 43 h -3 z" /><path
       id="path272"
       d="m 349,588 -1,1 v 43 l 1,1 h 3 l 1,-1 v -43 l -1,-1 z m 0,1 h 3 v 43 h -3 z" /><path
       id="path273"
       d="m 359,588 -1,1 v 43 l 1,1 h 3 l 1,-1 v -43 l -1,-1 z m 0,1 h 3 v 43 h -3 z" /><path
       id="path274"
       d="m 369,588 -1,1 v 43 l 1,1 h 3 l 1,-1 v -43 l -1,-1 z m 0,1 h 3 v 43 h -3 z" /><path
       id="path275"
       d="m 379,588 -1,1 v 43 l 1,1 h 3 l 1,-1 v -43 l -1,-1 z m 0,1 h 3 v 43 h -3 z" /><path
       id="path276"
       d="m 389,588 -1,1 v 43 l 1,1 h 3 l 1,-1 v -43 l -1,-1 z m 0,1 h 3 v 43 h -3 z" /><path
       id="path277"
       d="m 399,588 -1,1 v 43 l 1,1 h 3 l 1,-1 v -43 l -1,-1 z m 0,1 h 3 v 43 h -3 z" /><path
       id="path278"
       d="m 409,588 -1,1 v 43 l 1,1 h 3 l 1,-1 v -43 l -1,-1 z m 0,1 h 3 v 43 h -3 z" /><path
       id="path279"
       d="m 419,588 -1,1 v 43 l 1,1 h 3 l 1,-1 v -43 l -1,-1 z m 0,1 h 3 v 43 h -3 z" /><path
       id="path344"
       d="m 20,294 -1,1 v 26 l 1,1 h 3 l 1,-1 v -26 l -1,-1 z m 0,1 h 3 v 26 h -3 z" /><path
       id="path345"
       d="m 30,294 -1,1 v 26 l 1,1 h 3 l 1,-1 v -26 l -1,-1 z m 0,1 h 3 v 26 h -3 z" /><path
       id="path346"
       d="m 40,294 -1,1 v 26 l 1,1 h 3 l 1,-1 v -26 l -1,-1 z m 0,1 h 3 v 26 h -3 z" /><path
       id="path347"
       d="m 50,294 -1,1 v 26 l 1,1 h 3 l 1,-1 v -26 l -1,-1 z m 0,1 h 3 v 26 h -3 z" /><path
       id="path348"
       d="m 60,294 -1,1 v 26 l 1,1 h 3 l 1,-1 v -26 l -1,-1 z m 0,1 h 3 v 26 h -3 z" /><path
       id="path349"
       d="m 70,294 -1,1 v 26 l 1,1 h 3 l 1,-1 v -26 l -1,-1 z m 0,1 h 3 v 26 h -3 z" /><path
       id="path350"
       d="m 80,294 -1,1 v 26 l 1,1 h 3 l 1,-1 v -26 l -1,-1 z m 0,1 h 3 v 26 h -3 z" /><path
       id="path351"
       d="m 90,294 -1,1 v 26 l 1,1 h 3 l 1,-1 v -26 l -1,-1 z m 0,1 h 3 v 26 h -3 z" /><path
       id="path352"
       d="m 100,294 -1,1 v 26 l 1,1 h 3 l 1,-1 v -26 l -1,-1 z m 0,1 h 3 v 26 h -3 z" /><path
       id="path353"
       d="m 110,294 -1,1 v 26 l 1,1 h 3 l 1,-1 v -26 l -1,-1 z m 0,1 h 3 v 26 h -3 z" /><path
       id="path354"
       d="m 120,294 -1,1 v 26 l 1,1 h 3 l 1,-1 v -26 l -1,-1 z m 0,1 h 3 v 26 h -3 z" /><path
       id="path355"
       d="m 130,294 -1,1 v 26 l 1,1 h 3 l 1,-1 v -26 l -1,-1 z m 0,1 h 3 v 26 h -3 z" /><path
       id="path356"
       d="m 20,332 -1,1 v 26 l 1,1 h 3 l 1,-1 v -26 l -1,-1 z m 0,1 h 3 v 26 h -3 z" /><path
       id="path357"
       d="m 30,332 -1,1 v 26 l 1,1 h 3 l 1,-1 v -26 l -1,-1 z m 0,1 h 3 v 26 h -3 z" /><path
       id="path358"
       d="m 40,332 -1,1 v 26 l 1,1 h 3 l 1,-1 v -26 l -1,-1 z m 0,1 h 3 v 26 h -3 z" /><path
       id="path359"
       d="m 50,332 -1,1 v 26 l 1,1 h 3 l 1,-1 v -26 l -1,-1 z m 0,1 h 3 v 26 h -3 z" /><path
       id="path360"
       d="m 60,332 -1,1 v 26 l 1,1 h 3 l 1,-1 v -26 l -1,-1 z m 0,1 h 3 v 26 h -3 z" /><path
       id="path361"
       d="m 70,332 -1,1 v 26 l 1,1 h 3 l 1,-1 v -26 l -1,-1 z m 0,1 h 3 v 26 h -3 z" /><path
       id="path362"
       d="m 80,332 -1,1 v 26 l 1,1 h 3 l 1,-1 v -26 l -1,-1 z m 0,1 h 3 v 26 h -3 z" /><path
       id="path363"
       d="m 90,332 -1,1 v 26 l 1,1 h 3 l 1,-1 v -26 l -1,-1 z m 0,1 h 3 v 26 h -3 z" /><path
       id="path364"
       d="m 100,332 -1,1 v 26 l 1,1 h 3 l 1,-1 v -26 l -1,-1 z m 0,1 h 3 v 26 h -3 z" /><path
       id="path365"
       d="m 110,332 -1,1 v 26 l 1,1 h 3 l 1,-1 v -26 l -1,-1 z m 0,1 h 3 v 26 h -3 z" /><path
       id="path366"
       d="m 120,332 -1,1 v 26 l 1,1 h 3 l 1,-1 v -26 l -1,-1 z m 0,1 h 3 v 26 h -3 z" /><path
       id="path367"
       d="m 130,332 -1,1 v 26 l 1,1 h 3 l 1,-1 v -26 l -1,-1 z m 0,1 h 3 v 26 h -3 z" /><path
       id="path368"
       d="m 20,370 -1,1 v 26 l 1,1 h 3 l 1,-1 v -26 l -1,-1 z m 0,1 h 3 v 26 h -3 z" /><path
       id="path369"
       d="m 30,370 -1,1 v 26 l 1,1 h 3 l 1,-1 v -26 l -1,-1 z m 0,1 h 3 v 26 h -3 z" /><path
       id="path370"
       d="m 40,370 -1,1 v 26 l 1,1 h 3 l 1,-1 v -26 l -1,-1 z m 0,1 h 3 v 26 h -3 z" /><path
       id="path371"
       d="m 50,370 -1,1 v 26 l 1,1 h 3 l 1,-1 v -26 l -1,-1 z m 0,1 h 3 v 26 h -3 z" /><path
       id="path372"
       d="m 60,370 -1,1 v 26 l 1,1 h 3 l 1,-1 v -26 l -1,-1 z m 0,1 h 3 v 26 h -3 z" /><path
       id="path373"
       d="m 70,370 -1,1 v 26 l 1,1 h 3 l 1,-1 v -26 l -1,-1 z m 0,1 h 3 v 26 h -3 z" /><path
       id="path374"
       d="m 80,370 -1,1 v 26 l 1,1 h 3 l 1,-1 v -26 l -1,-1 z m 0,1 h 3 v 26 h -3 z" /><path
       id="path375"
       d="m 90,370 -1,1 v 26 l 1,1 h 3 l 1,-1 v -26 l -1,-1 z m 0,1 h 3 v 26 h -3 z" /><path
       id="path376"
       d="m 100,370 -1,1 v 26 l 1,1 h 3 l 1,-1 v -26 l -1,-1 z m 0,1 h 3 v 26 h -3 z" /><path
       id="path377"
       d="m 110,370 -1,1 v 26 l 1,1 h 3 l 1,-1 v -26 l -1,-1 z m 0,1 h 3 v 26 h -3 z" /><path
       id="path378"
       d="m 120,370 -1,1 v 26 l 1,1 h 3 l 1,-1 v -26 l -1,-1 z m 0,1 h 3 v 26 h -3 z" /><path
       id="path379"
       d="m 130,370 -1,1 v 26 l 1,1 h 3 l 1,-1 v -26 l -1,-1 z m 0,1 h 3 v 26 h -3 z" /><path
       id="path380"
       d="m 20,408 -1,1 v 26 l 1,1 h 3 l 1,-1 v -26 l -1,-1 z m 0,1 h 3 v 26 h -3 z" /><path
       id="path381"
       d="m 30,408 -1,1 v 26 l 1,1 h 3 l 1,-1 v -26 l -1,-1 z m 0,1 h 3 v 26 h -3 z" /><path
       id="path382"
       d="m 40,408 -1,1 v 26 l 1,1 h 3 l 1,-1 v -26 l -1,-1 z m 0,1 h 3 v 26 h -3 z" /><path
       id="path383"
       d="m 50,408 -1,1 v 26 l 1,1 h 3 l 1,-1 v -26 l -1,-1 z m 0,1 h 3 v 26 h -3 z" /><path
       id="path384"
       d="m 60,408 -1,1 v 26 l 1,1 h 3 l 1,-1 v -26 l -1,-1 z m 0,1 h 3 v 26 h -3 z" /><path
       id="path385"
       d="m 70,408 -1,1 v 26 l 1,1 h 3 l 1,-1 v -26 l -1,-1 z m 0,1 h 3 v 26 h -3 z" /><path
       id="path386"
       d="m 80,408 -1,1 v 26 l 1,1 h 3 l 1,-1 v -26 l -1,-1 z m 0,1 h 3 v 26 h -3 z" /><path
       id="path387"
       d="m 90,408 -1,1 v 26 l 1,1 h 3 l 1,-1 v -26 l -1,-1 z m 0,1 h 3 v 26 h -3 z" /><path
       id="path388"
       d="m 100,408 -1,1 v 26 l 1,1 h 3 l 1,-1 v -26 l -1,-1 z m 0,1 h 3 v 26 h -3 z" /><path
       id="path389"
       d="m 110,408 -1,1 v 26 l 1,1 h 3 l 1,-1 v -26 l -1,-1 z m 0,1 h 3 v 26 h -3 z" /><path
       id="path390"
       d="m 120,408 -1,1 v 26 l 1,1 h 3 l 1,-1 v -26 l -1,-1 z m 0,1 h 3 v 26 h -3 z" /><path
       id="path391"
       d="m 130,408 -1,1 v 26 l 1,1 h 3 l 1,-1 v -26 l -1,-1 z m 0,1 h 3 v 26 h -3 z" /><path
       id="path392"
       d="m 20,446 -1,1 v 26 l 1,1 h 3 l 1,-1 v -26 l -1,-1 z m 0,1 h 3 v 26 h -3 z" /><path
       id="path393"
       d="m 30,446 -1,1 v 26 l 1,1 h 3 l 1,-1 v -26 l -1,-1 z m 0,1 h 3 v 26 h -3 z" /><path
       id="path394"
       d="m 40,446 -1,1 v 26 l 1,1 h 3 l 1,-1 v -26 l -1,-1 z m 0,1 h 3 v 26 h -3 z" /><path
       id="path395"
       d="m 50,446 -1,1 v 26 l 1,1 h 3 l 1,-1 v -26 l -1,-1 z m 0,1 h 3 v 26 h -3 z" /><path
       id="path396"
       d="m 60,446 -1,1 v 26 l 1,1 h 3 l 1,-1 v -26 l -1,-1 z m 0,1 h 3 v 26 h -3 z" /><path
       id="path397"
       d="m 70,446 -1,1 v 26 l 1,1 h 3 l 1,-1 v -26 l -1,-1 z m 0,1 h 3 v 26 h -3 z" /><path
       id="path398"
       d="m 80,446 -1,1 v 26 l 1,1 h 3 l 1,-1 v -26 l -1,-1 z m 0,1 h 3 v 26 h -3 z" /><path
       id="path399"
       d="m 90,446 -1,1 v 26 l 1,1 h 3 l 1,-1 v -26 l -1,-1 z m 0,1 h 3 v 26 h -3 z" /><path
       id="path400"
       d="m 100,446 -1,1 v 26 l 1,1 h 3 l 1,-1 v -26 l -1,-1 z m 0,1 h 3 v 26 h -3 z" /><path
       id="path401"
       d="m 110,446 -1,1 v 26 l 1,1 h 3 l 1,-1 v -26 l -1,-1 z m 0,1 h 3 v 26 h -3 z" /><path
       id="path402"
       d="m 120,446 -1,1 v 26 l 1,1 h 3 l 1,-1 v -26 l -1,-1 z m 0,1 h 3 v 26 h -3 z" /><path
       id="path403"
       d="m 130,446 -1,1 v 26 l 1,1 h 3 l 1,-1 v -26 l -1,-1 z m 0,1 h 3 v 26 h -3 z" /><path
       id="path404"
       d="m 20,484 -1,1 v 26 l 1,1 h 3 l 1,-1 v -26 l -1,-1 z m 0,1 h 3 v 26 h -3 z" /><path
       id="path405"
       d="m 30,484 -1,1 v 26 l 1,1 h 3 l 1,-1 v -26 l -1,-1 z m 0,1 h 3 v 26 h -3 z" /><path
       id="path406"
       d="m 40,484 -1,1 v 26 l 1,1 h 3 l 1,-1 v -26 l -1,-1 z m 0,1 h 3 v 26 h -3 z" /><path
       id="path407"
       d="m 50,484 -1,1 v 26 l 1,1 h 3 l 1,-1 v -26 l -1,-1 z m 0,1 h 3 v 26 h -3 z" /><path
       id="path408"
       d="m 60,484 -1,1 v 26 l 1,1 h 3 l 1,-1 v -26 l -1,-1 z m 0,1 h 3 v 26 h -3 z" /><path
       id="path409"
       d="m 70,484 -1,1 v 26 l 1,1 h 3 l 1,-1 v -26 l -1,-1 z m 0,1 h 3 v 26 h -3 z" /><path
       id="path410"
       d="m 80,484 -1,1 v 26 l 1,1 h 3 l 1,-1 v -26 l -1,-1 z m 0,1 h 3 v 26 h -3 z" /><path
       id="path411"
       d="m 90,484 -1,1 v 26 l 1,1 h 3 l 1,-1 v -26 l -1,-1 z m 0,1 h 3 v 26 h -3 z" /><path
       id="path416"
       d="m 20,522 -1,1 v 26 l 1,1 h 3 l 1,-1 v -26 l -1,-1 z m 0,1 h 3 v 26 h -3 z" /><path
       id="path417"
       d="m 30,522 -1,1 v 26 l 1,1 h 3 l 1,-1 v -26 l -1,-1 z m 0,1 h 3 v 26 h -3 z" /><path
       id="path418"
       d="m 40,522 -1,1 v 26 l 1,1 h 3 l 1,-1 v -26 l -1,-1 z m 0,1 h 3 v 26 h -3 z" /><path
       id="path419"
       d="m 50,522 -1,1 v 26 l 1,1 h 3 l 1,-1 v -26 l -1,-1 z m 0,1 h 3 v 26 h -3 z" /><path
       id="path420"
       d="m 60,522 -1,1 v 26 l 1,1 h 3 l 1,-1 v -26 l -1,-1 z m 0,1 h 3 v 26 h -3 z" /><path
       id="path421"
       d="m 70,522 -1,1 v 26 l 1,1 h 3 l 1,-1 v -26 l -1,-1 z m 0,1 h 3 v 26 h -3 z" /><path
       id="path422"
       d="m 80,522 -1,1 v 26 l 1,1 h 3 l 1,-1 v -26 l -1,-1 z m 0,1 h 3 v 26 h -3 z" /><path
       id="path423"
       d="m 90,522 -1,1 v 26 l 1,1 h 3 l 1,-1 v -26 l -1,-1 z m 0,1 h 3 v 26 h -3 z" /><path
       id="path428"
       d="m 20,559 -1,1 v 26 l 1,1 h 3 l 1,-1 v -26 l -1,-1 z m 0,1 h 3 v 26 h -3 z" /><path
       id="path429"
       d="m 30,559 -1,1 v 26 l 1,1 h 3 l 1,-1 v -26 l -1,-1 z m 0,1 h 3 v 26 h -3 z" /><path
       id="path430"
       d="m 40,559 -1,1 v 26 l 1,1 h 3 l 1,-1 v -26 l -1,-1 z m 0,1 h 3 v 26 h -3 z" /><path
       id="path431"
       d="m 50,559 -1,1 v 26 l 1,1 h 3 l 1,-1 v -26 l -1,-1 z m 0,1 h 3 v 26 h -3 z" /><path
       id="path432"
       d="m 60,559 -1,1 v 26 l 1,1 h 3 l 1,-1 v -26 l -1,-1 z m 0,1 h 3 v 26 h -3 z" /><path
       id="path433"
       d="m 70,559 -1,1 v 26 l 1,1 h 3 l 1,-1 v -26 l -1,-1 z m 0,1 h 3 v 26 h -3 z" /><path
       id="path434"
       d="m 80,559 -1,1 v 26 l 1,1 h 3 l 1,-1 v -26 l -1,-1 z m 0,1 h 3 v 26 h -3 z" /><path
       id="path435"
       d="m 90,559 -1,1 v 26 l 1,1 h 3 l 1,-1 v -26 l -1,-1 z m 0,1 h 3 v 26 h -3 z" /><path
       id="path436"
       d="m 100,559 -1,1 v 26 l 1,1 h 3 l 1,-1 v -26 l -1,-1 z m 0,1 h 3 v 26 h -3 z" /><path
       id="path437"
       d="m 110,559 -1,1 v 26 l 1,1 h 3 l 1,-1 v -26 l -1,-1 z m 0,1 h 3 v 26 h -3 z" /><path
       id="path438"
       d="m 120,559 -1,1 v 26 l 1,1 h 3 l 1,-1 v -26 l -1,-1 z m 0,1 h 3 v 26 h -3 z" /><path
       id="path439"
       d="m 130,559 -1,1 v 26 l 1,1 h 3 l 1,-1 v -26 l -1,-1 z m 0,1 h 3 v 26 h -3 z" /><path
       id="path441"
       d="m 105,484 -1,1 v 64 l 1,1 h 3 l 1,-1 v -64 l -1,-1 z m 0,1 h 3 v 64 h -3 z" /><path
       id="path442"
       d="m 115,484 -1,1 v 64 l 1,1 h 3 l 1,-1 v -64 l -1,-1 z m 0,1 h 3 v 64 h -3 z" /><path
       id="path443"
       d="m 125,484 -1,1 v 64 l 1,1 h 3 l 1,-1 v -64 l -1,-1 z m 0,1 h 3 v 64 h -3 z" /></g></svg>
