<?xml version="1.0" encoding="UTF-8" standalone="no"?>
<svg
   width="512"
   height="512"
   viewBox="0 0 512 512"
   version="1.1"
   id="svg616"
   xml:space="preserve"
   xmlns="http://www.w3.org/2000/svg"
   xmlns:svg="http://www.w3.org/2000/svg"><defs
     id="defs616" /><desc
     id="desc1">, (Blender 4.1.1)</desc><rect
     style="fill:#000000;fill-opacity:1;stroke-width:2;stroke-linejoin:bevel"
     id="rect617"
     width="512"
     height="512"
     x="0"
     y="0" /><path
     style="fill:#ffffff;fill-opacity:1;stroke-width:2;stroke-linejoin:bevel"
     d="m 0,147.85775 144.72922,1.75493 13.86484,14.27087 40.53533,-1.66247 9.54242,9.59726 30.76607,10.47472 11.29734,1.53556 13.05227,-2.96144 4.60668,6.25193 3.05728,18.40841 -4.033,9.1518 -51.03287,41.72596 -0.31023,3.87788 -7.13529,8.06598 0.62046,5.89438 16.90754,16.13197 6.82507,24.19796 -62.82162,25.59399 -37.38274,13.80525 L 117.88749,333.34238 107.805,322.48432 97.877636,304.49097 90.12188,288.51411 92.938442,265.30295 35.185113,253.47553 5.9234963,253.6588 0,256.98886 Z"
     id="path617" /></svg>
