<?xml version="1.0" encoding="UTF-8" standalone="no"?>
<!-- Created with Inkscape (http://www.inkscape.org/) -->

<svg
   version="1.1"
   id="svg1"
   width="256"
   height="512"
   viewBox="0 0 256 512"
   xmlns="http://www.w3.org/2000/svg"
   xmlns:svg="http://www.w3.org/2000/svg">
  <defs
     id="defs1" />
  <rect
     style="fill:#000000;fill-opacity:1;stroke:none;stroke-width:5;stroke-linecap:butt;stroke-linejoin:miter;stroke-dasharray:none;stroke-opacity:1"
     id="rect19"
     width="256"
     height="512"
     x="0"
     y="0" />
  <path
     style="fill:none;stroke:#ffffff;stroke-width:5;stroke-linecap:round;stroke-linejoin:round;stroke-dasharray:none;stroke-opacity:1"
     d="m 94.739454,139.08349 -59.391702,-54.563369 76.014848,0"
     id="path1" />
  <path
     style="fill:none;stroke:#ffffff;stroke-width:5;stroke-linecap:butt;stroke-linejoin:round;stroke-dasharray:none;stroke-opacity:1"
     d="M 44.695801,139.51671 62.711225,121.50129"
     id="path2" />
  <path
     style="baseline-shift:baseline;display:inline;overflow:visible;opacity:1;vector-effect:none;fill:#ffffff;stroke-linecap:square;enable-background:accumulate;stop-color:#000000;stop-opacity:1"
     d="m 46.159166,124.00195 14.051771,0 v 13.53607 l 5,-4.86551 v -13.67056 l -14.359539,0 z"
     id="path3" />
  <path
     style="fill:#ffffff;fill-opacity:1;stroke:none;stroke-width:5;stroke-linecap:butt;stroke-linejoin:miter;stroke-dasharray:none;stroke-opacity:1"
     d="m 74.959377,89.927986 c 4.692232,1.843766 18.148469,6.553614 18.148469,6.553614 1.938939,0.814355 1.667488,5.50659 1.667488,5.50659 l 0.756756,0.14571 c 2.263908,-4.738936 11.57029,-7.804425 17.07416,-7.774582 4.57893,-0.03599 7.84188,1.381125 7.77719,3.7604 0.0692,1.706006 -2.13919,2.462202 -4.59618,1.947542 0,0 -6.38487,-1.538652 -8.60595,-0.140195 l -0.5894,0.601235 c -0.60326,0.97344 0.12729,1.45989 0.12729,1.45989 l 0.36208,0.18075 c 1.5904,0.34276 2.34937,-0.39639 4.44706,-0.42381 2.22108,-0.0274 3.02417,0.22366 4.47838,0.61145 1.43481,0 2.28794,-0.23267 2.28794,-0.23267 l 1.78383,-0.67863 c 1.6481,-0.5429 3.74215,-0.21328 3.4707,1.16337 -0.5902,6.65015 -3.00908,6.8028 -4.34322,7.32919 -2.15174,0.84896 -2.71452,0.19389 -2.71452,0.19389 0,0 -1.55115,-0.69802 -2.24917,-1.39604 -0.69802,-0.69801 -0.98957,-0.82622 -1.46459,-1.12142 -0.8081,-0.50218 -2.90296,0.0608 -3.50891,1.04665 -0.59087,0.96136 -0.57124,1.62744 -0.27138,2.3519 0.27686,0.66888 1.82348,0.37017 3.46873,0.3976 1.64524,0.0274 4.25313,0.22269 5.32254,0.77105 1.06941,0.54842 2.11139,2.55379 2.16624,4.03451 0.0548,1.48072 0.0225,3.4676 -0.26148,4.41578 -0.54175,1.8088 -2.22302,2.15821 -3.42954,1.6098 -1.20651,-0.54842 -2.53349,-2.73795 -4.12389,-3.47831 -1.59041,-0.74036 -6.33809,-3.73197 -6.33809,-3.73197 l -1.53458,-0.33043 c 0,0 -1.74122,-0.23307 -1.16539,0.9186 0.57584,1.15167 6.16966,3.96229 6.16966,3.96229 l 2.71466,2.00172 c 0,0 1.4533,0.74036 1.15167,1.78235 -0.30163,1.04198 -2.1114,1.94687 -2.1114,1.94687 0,0 -2.68723,0.74036 -3.976,-0.0274 -1.28878,-0.76778 -8.500431,-7.48586 -8.500431,-7.48586 l -3.813574,-5.92272 c -1.364936,-1.49619 -0.119464,-3.89548 -1.047027,-4.53711 -2.86271,3.0006 -2.362955,5.2579 -6.476056,4.76979 -2.073838,-0.37201 -19.045993,-4.32875 -19.045993,-4.32875 -7.187378,-1.80454 -1.313255,-21.598256 6.791928,-17.852644 z"
     id="path4" />
  <path
     id="path19"
     style="font-weight:bold;font-size:21.25px;line-height:24.1217px;font-family:Arial;-inkscape-font-specification:'Arial Bold';letter-spacing:0.05px;fill:#ffffff;stroke-width:5"
     d="m 112.10938,-152.07454 v -15.82279 h 5.45027 c 1.62557,0 2.80583,0.13932 3.53906,0.41601 0.74015,0.26978 1.33073,1.05416 1.77344,1.7528 0.44271,0.69865 0.66406,1.49919 0.66406,2.39844 0,1.14136 -0.33488,2.08497 -1.00586,2.83203 -0.67098,0.74016 -1.78823,1.92391 -1.78823,1.92391 0,0 1.19422,1.44571 2.17104,3.22258 l 1.85743,3.27702 h -3.67188 l -3.11261,-4.82096 c -0.73653,-1.16634 -1.40613,-1.14086 -2.14522,-1.14086 v 5.96182 z m 3.84118,-8.85449 h 0.48799 c 1.47339,0 2.06353,-0.063 2.43015,-0.1875 0.36661,-0.12451 0.65381,-0.57129 0.86133,-0.87566 0.20752,-0.30436 0.3125,-0.68603 0.3125,-1.14258 0,-0.51188 -0.13932,-0.92309 -0.41602,-1.23437 -0.26977,-0.31819 -0.65234,-0.51856 -1.15039,-0.60156 -0.24902,-0.0346 -0.66745,-0.0508 -1.91257,-0.0508 h -0.61299 z"
     transform="scale(1,-1)" />
  <path
     style="font-weight:bold;font-size:21.25px;line-height:24.1217px;font-family:Arial;-inkscape-font-specification:'Arial Bold';letter-spacing:0.05px;fill:#ffffff;stroke-width:5"
     d="m 100.04239,-152.1129 v -15.86653 l 9.44149,0 v 2.95714 h -5.7121 v 3.09798 h 5.16885 v 2.83708 h -5.16885 v 4.14001 l 5.67358,-0.0274 v 2.83432 z"
     transform="scale(1,-1)"
     id="path17" />
  <path
     style="font-weight:bold;font-size:21.25px;line-height:24.1217px;font-family:Arial;-inkscape-font-specification:'Arial Bold';letter-spacing:0.05px;fill:#ffffff;stroke-width:5"
     d="m 90.023907,158.03185 v 2.93304 h 6.93018 v -6.99188 c -1.00637,-1.74308 -3.126328,-1.93573 -3.126328,-1.93573 l -3.273055,1.3e-4 c -5.86652,2.2e-4 -7.445112,6.30664 -7.445112,8.16893 0,0.70113 0.638866,7.81311 7.291256,7.81311 0.738126,0 3.242508,-0.0492 3.242508,-0.0492 0,0 1.518244,-0.001 2.35615,-1.45238 l 0.043,-1.85558 -2.24541,-0.33801 c -0.759552,0.92879 -3.221738,0.69195 -3.221738,0.69195 -1.685305,0.0895 -3.699152,-2.56757 -3.699152,-4.68538 0,-1.47876 0.341657,-5.41626 3.980535,-5.41626 1.18591,-0.0144 2.056799,0.18645 2.207613,0.68002 v 2.43723 z"
     id="path16" />
  <path
     style="font-weight:bold;font-size:21.25px;line-height:24.1217px;font-family:Arial;-inkscape-font-specification:'Arial Bold';letter-spacing:0.05px;fill:#ffffff;stroke-width:5"
     d="m 66.083494,152.03534 v 15.83165 h 4.601979 l 6.424257,-9.53601 v 9.57479 h 3.682352 v -15.87043 h -4.333706 l -6.498636,9.64799 v -9.64799 z"
     id="path15" />
  <path
     id="path14"
     style="font-weight:bold;font-size:21.25px;line-height:24.1217px;font-family:Arial;-inkscape-font-specification:'Arial Bold';letter-spacing:0.05px;fill:#ffffff;stroke-width:5"
     d="m 48.958984,-152.08314 5.23831,-15.81419 4.536821,0 5.488541,15.81419 h -3.80795 l -1.328125,-3.7567 h -5.06551 l -1.255859,3.7567 z m 5.813502,-6.81277 h 3.492292 l -1.739234,-4.68482 z"
     transform="scale(1,-1)" />
  <path
     id="path12"
     style="font-weight:bold;font-size:21.25px;line-height:24.1217px;font-family:Arial;-inkscape-font-specification:'Arial Bold';letter-spacing:0.05px;fill:#ffffff;stroke-width:5"
     d="m 35.099609,-152.0283 v -15.92387 h 5.613282 c 1.265869,0 2.230468,0.0973 2.894531,0.29101 0.892334,0.26286 1.656576,0.72941 2.292969,1.40039 0.636393,0.67098 1.121093,1.84988 1.453125,2.82522 0.332031,0.96843 0.498046,2.16683 0.498046,3.5918 0,1.25203 -0.15747,2.33016 -0.46875,3.23633 -0.380452,1.10677 -0.92334,2.00268 -1.628906,2.6875 -0.532633,0.5188 -1.252034,1.28079 -2.158203,1.57131 -0.677897,0.21444 -1.582357,0.32031 -2.716797,0.32031 z m 3.070313,-2.91897 1.799396,0 c 0.857747,0 1.47697,-0.0477 1.857421,-0.14453 0.498048,-0.12451 0.909261,-0.33536 1.234376,-0.63281 0.332031,-0.29745 0.603027,-0.785 0.810546,-1.46289 0.20752,-0.68481 0.310547,-1.61702 0.310547,-2.79297 0,-1.17594 -0.103027,-2.07755 -0.310547,-2.70703 -0.207519,-0.62947 -0.499511,-1.11987 -0.873046,-1.47266 -0.373536,-0.35278 -0.847738,-0.59228 -1.421876,-0.71679 -0.428873,-0.0968 -1.267496,-0.14453 -2.519531,-0.14453 l -0.887286,0 z"
     transform="scale(1,-1)" />
</svg>
